<?xml version="1.0" encoding="UTF-8" standalone="no"?>
<!-- Created with Inkscape (http://www.inkscape.org/) -->

<svg
   width="81.23735mm"
   height="8.9852505mm"
   viewBox="0 0 81.237349 8.98525"
   version="1.1"
   id="svg1041"
   inkscape:version="1.3.2 (091e20e, 2023-11-25, custom)"
   sodipodi:docname="contact-email.svg"
   xmlns:inkscape="http://www.inkscape.org/namespaces/inkscape"
   xmlns:sodipodi="http://sodipodi.sourceforge.net/DTD/sodipodi-0.dtd"
   xmlns="http://www.w3.org/2000/svg"
   xmlns:svg="http://www.w3.org/2000/svg"
   xmlns:rdf="http://www.w3.org/1999/02/22-rdf-syntax-ns#"
   xmlns:cc="http://creativecommons.org/ns#"
   xmlns:dc="http://purl.org/dc/elements/1.1/">
  <defs
     id="defs1035" />
  <sodipodi:namedview
     id="base"
     pagecolor="#2b1c7b"
     bordercolor="#666666"
     borderopacity="1.0"
     inkscape:pageopacity="1"
     inkscape:pageshadow="2"
     inkscape:zoom="2.8"
     inkscape:cx="290.89286"
     inkscape:cy="14.107143"
     inkscape:document-units="mm"
     inkscape:current-layer="text829"
     showgrid="false"
     fit-margin-top="0"
     fit-margin-left="0"
     fit-margin-right="0"
     fit-margin-bottom="0"
     inkscape:window-width="3440"
     inkscape:window-height="1373"
     inkscape:window-x="-9"
     inkscape:window-y="-9"
     inkscape:window-maximized="1"
     inkscape:showpageshadow="2"
     inkscape:pagecheckerboard="0"
     inkscape:deskcolor="#d1d1d1" />
  <metadata
     id="metadata1038">
    <rdf:RDF>
      <cc:Work
         rdf:about="">
        <dc:format>image/svg+xml</dc:format>
        <dc:type
           rdf:resource="http://purl.org/dc/dcmitype/StillImage" />
      </cc:Work>
    </rdf:RDF>
  </metadata>
  <g
     inkscape:label="Layer 1"
     inkscape:groupmode="layer"
     id="layer1"
     transform="translate(338.90338,-149.11174)">
    <g
       style="font-style:normal;font-weight:normal;font-size:10.5833px;line-height:1.25;font-family:sans-serif;text-align:end;letter-spacing:0px;word-spacing:0px;text-anchor:end;fill:#000000;fill-opacity:1;stroke:none;stroke-width:0.264583"
       id="text829">
      <path
         d="m -336.57505,157.26088 q -1.05833,0 -1.69333,-0.73025 -0.635,-0.74083 -0.635,-2.20133 0,-1.46049 0.635,-2.20132 0.64558,-0.75142 1.70391,-0.75142 0.65617,0 1.06892,0.24342 0.42333,0.24341 0.68791,0.59266 h 0.0635 q -0.0212,-0.13758 -0.0423,-0.40216 -0.0212,-0.27517 -0.0212,-0.43392 v -2.26482 h 0.93133 v 8.0433 h -0.75141 l -0.13759,-0.76199 h -0.0423 q -0.254,0.35983 -0.67733,0.61383 -0.42333,0.254 -1.09008,0.254 z m 0.14816,-0.77258 q 0.89959,0 1.25942,-0.48684 0.37041,-0.49741 0.37041,-1.49224 v -0.16933 q 0,-1.05833 -0.34925,-1.61925 -0.34924,-0.5715 -1.29116,-0.5715 -0.75141,0 -1.13241,0.60325 -0.37042,0.59267 -0.37042,1.59808 0,1.016 0.37042,1.57691 0.381,0.56092 1.14299,0.56092 z m 6.54048,-5.11174 q 0.71967,0 1.24883,0.3175 0.52917,0.3175 0.80433,0.89958 0.28575,0.5715 0.28575,1.34408 v 0.56092 h -3.88407 q 0.0212,0.96308 0.48683,1.47107 0.47625,0.49742 1.32291,0.49742 0.53975,0 0.9525,-0.0952 0.42333,-0.10583 0.86783,-0.29633 v 0.81491 q -0.43391,0.1905 -0.85725,0.27517 -0.42333,0.0952 -1.00541,0.0952 -0.81491,0 -1.42874,-0.32808 -0.61384,-0.32809 -0.96308,-0.97367 -0.33867,-0.64558 -0.33867,-1.59808 0,-0.93133 0.30692,-1.59807 0.31749,-0.66675 0.87841,-1.02658 0.5715,-0.35984 1.32291,-0.35984 z m -0.0106,0.762 q -0.66675,0 -1.05833,0.43392 -0.381,0.42333 -0.45508,1.18533 h 2.88924 q -0.0106,-0.71967 -0.33867,-1.16417 -0.32808,-0.45508 -1.03716,-0.45508 z m 4.82597,5.01648 -2.14841,-5.67264 h 0.99483 l 1.2065,3.34432 q 0.0847,0.23283 0.17991,0.51858 0.0953,0.28575 0.16933,0.55033 0.0741,0.26458 0.10584,0.43392 h 0.0423 q 0.0317,-0.16934 0.11642,-0.43392 0.0847,-0.27516 0.17991,-0.55033 0.0952,-0.28575 0.17992,-0.51858 l 1.2065,-3.34432 h 0.99483 l -2.159,5.67264 z m 12.12845,-3.77823 q 0,0.48683 -0.11641,0.95249 -0.10584,0.46567 -0.33867,0.84667 -0.23283,0.37041 -0.5715,0.60325 -0.33866,0.22224 -0.80433,0.22224 -0.48683,0 -0.77258,-0.27516 -0.27516,-0.28575 -0.33866,-0.64558 h -0.0529 q -0.1905,0.39158 -0.56091,0.65616 -0.37042,0.26458 -0.93133,0.26458 -0.81492,0 -1.24883,-0.53974 -0.43392,-0.53975 -0.43392,-1.42875 0,-0.68791 0.27517,-1.22766 0.27516,-0.53975 0.77258,-0.84667 0.508,-0.30691 1.19591,-0.30691 0.46567,0 0.91016,0.0847 0.45509,0.0741 0.70908,0.16933 l -0.10583,2.14841 q -0.0106,0.1905 -0.0106,0.27516 0,0.0741 0,0.10584 0,0.56091 0.1905,0.74083 0.20108,0.16933 0.46566,0.16933 0.32809,0 0.55033,-0.26458 0.23284,-0.27517 0.34925,-0.71967 0.127,-0.4445 0.127,-0.99483 0,-0.97366 -0.40216,-1.66157 -0.39158,-0.68792 -1.09008,-1.04775 -0.68792,-0.35983 -1.56633,-0.35983 -1.2065,0 -2.04258,0.49741 -0.82549,0.49742 -1.25941,1.37583 -0.42333,0.86783 -0.42333,1.98966 0,1.56633 0.8255,2.40241 0.82549,0.83608 2.38124,0.83608 0.64558,0 1.22766,-0.14817 0.59267,-0.13758 1.04775,-0.30691 v 0.71966 q -0.45508,0.1905 -1.02658,0.30692 -0.56092,0.127 -1.24883,0.127 -1.24883,0 -2.13783,-0.46567 -0.889,-0.46566 -1.36524,-1.33349 -0.46567,-0.87842 -0.46567,-2.10608 0,-0.98425 0.30692,-1.82033 0.30691,-0.84666 0.88899,-1.46049 0.58208,-0.62442 1.40758,-0.96308 0.83608,-0.34925 1.88383,-0.34925 1.10066,0 1.95791,0.45508 0.85725,0.45508 1.34408,1.30175 0.49741,0.84666 0.49741,2.02141 z m -5.34456,0.67733 q 0,0.68791 0.26458,0.99483 0.26458,0.29633 0.73025,0.29633 0.59266,0 0.84666,-0.4445 0.26458,-0.4445 0.30692,-1.15358 l 0.0635,-1.32291 q -0.13759,-0.0423 -0.34925,-0.0741 -0.21167,-0.0318 -0.43392,-0.0318 -0.51858,0 -0.83608,0.254 -0.3175,0.254 -0.45508,0.65616 -0.13758,0.39158 -0.13758,0.8255 z m 9.13339,3.20674 q -0.762,0 -1.34408,-0.30692 -0.58208,-0.30691 -0.92075,-0.9525 -0.32808,-0.64558 -0.32808,-1.65099 0,-1.04775 0.33867,-1.70391 0.34924,-0.65617 0.95249,-0.96308 0.60325,-0.30692 1.36525,-0.30692 0.42333,0 0.8255,0.0952 0.41274,0.0847 0.66674,0.21167 l -0.28575,0.77258 q -0.254,-0.0953 -0.59266,-0.17992 -0.33867,-0.0847 -0.635,-0.0847 -1.67216,0 -1.67216,2.14841 0,1.02658 0.40217,1.57691 0.41274,0.53975 1.21707,0.53975 0.45509,0 0.81492,-0.0952 0.35983,-0.0952 0.65616,-0.23284 v 0.8255 q -0.28575,0.14817 -0.63499,0.22225 -0.33867,0.0847 -0.8255,0.0847 z m 3.7359,-0.10584 h -0.93133 v -8.0433 h 0.93133 z m 3.94756,-5.76789 q 1.03716,0 1.53458,0.45508 0.49741,0.45508 0.49741,1.44991 v 3.8629 h -0.67733 l -0.17991,-0.80433 h -0.0423 q -0.37041,0.46567 -0.78316,0.68792 -0.41275,0.22225 -1.12183,0.22225 -0.77258,0 -1.28058,-0.40217 -0.508,-0.41275 -0.508,-1.28058 0,-0.84666 0.66675,-1.30174 0.66675,-0.46567 2.05316,-0.508 l 0.96308,-0.0318 v -0.33867 q 0,-0.70908 -0.30691,-0.98424 -0.30692,-0.27517 -0.86784,-0.27517 -0.44449,0 -0.84666,0.13758 -0.40216,0.127 -0.75141,0.29634 l -0.28575,-0.6985 q 0.37041,-0.20108 0.87841,-0.33867 0.508,-0.14816 1.05833,-0.14816 z m 1.11125,2.99507 -0.83608,0.0318 q -1.05833,0.0423 -1.47108,0.33867 -0.40217,0.29633 -0.40217,0.83608 0,0.47624 0.28575,0.69849 0.29633,0.22225 0.75142,0.22225 0.70908,0 1.18533,-0.39158 0.48683,-0.40216 0.48683,-1.22766 z m 6.37115,1.2065 q 0,0.82549 -0.61383,1.24883 -0.61383,0.42333 -1.65099,0.42333 -0.59267,0 -1.02658,-0.0952 -0.42333,-0.0952 -0.75142,-0.26458 v -0.84667 q 0.33867,0.16933 0.81492,0.3175 0.48683,0.13758 0.98424,0.13758 0.70909,0 1.02658,-0.22225 0.3175,-0.23283 0.3175,-0.61383 0,-0.21166 -0.11641,-0.381 -0.11642,-0.16933 -0.42333,-0.33866 -0.29634,-0.16933 -0.85725,-0.381 -0.55033,-0.21167 -0.94192,-0.42333 -0.39158,-0.21167 -0.60324,-0.508 -0.21167,-0.29633 -0.21167,-0.762 0,-0.71966 0.58208,-1.11124 0.59267,-0.39159 1.54516,-0.39159 0.51858,0 0.96308,0.10584 0.45509,0.10583 0.84667,0.27516 l -0.3175,0.74083 q -0.35983,-0.14816 -0.75142,-0.254 -0.39158,-0.10583 -0.80433,-0.10583 -0.57149,0 -0.87841,0.1905 -0.29633,0.17992 -0.29633,0.49742 0,0.24341 0.13758,0.40216 0.13758,0.15875 0.45508,0.3175 0.32808,0.15875 0.86783,0.35983 0.53975,0.20108 0.92075,0.41275 0.381,0.21167 0.58208,0.51858 0.20108,0.29633 0.20108,0.75142 z m 2.30716,-6.47698 v 2.36007 q 0,0.42333 -0.0529,0.79375 h 0.0635 q 0.27516,-0.43392 0.74083,-0.65616 0.47625,-0.22225 1.02658,-0.22225 1.02658,0 1.54516,0.49741 0.52916,0.48683 0.52916,1.57691 v 3.69357 h -0.92074 v -3.63007 q 0,-1.36524 -1.27,-1.36524 -0.9525,0 -1.31233,0.53975 -0.34925,0.52916 -0.34925,1.52399 v 2.93157 h -0.93133 v -8.0433 z m 6.54048,0 v 1.95791 q 0,0.35983 -0.0212,0.67733 -0.0106,0.30691 -0.0317,0.48683 h 0.0529 q 0.24342,-0.35983 0.66675,-0.60325 0.42333,-0.24341 1.09008,-0.24341 1.05833,0 1.69333,0.74083 0.64558,0.73024 0.64558,2.19074 0,1.4605 -0.64558,2.20133 -0.64558,0.74083 -1.69333,0.74083 -0.66675,0 -1.09008,-0.24342 -0.42333,-0.24341 -0.66675,-0.58208 h -0.0741 l -0.1905,0.71966 h -0.66675 v -8.0433 z m 1.59808,3.04799 q -0.91016,0 -1.25941,0.51858 -0.33867,0.51858 -0.33867,1.60866 v 0.0423 q 0,1.04775 0.33867,1.60867 0.34925,0.55033 1.28058,0.55033 0.762,0 1.13241,-0.56092 0.381,-0.56091 0.381,-1.61924 0,-2.14841 -1.53458,-2.14841 z m 6.12773,-0.77258 q 1.03716,0 1.53458,0.45508 0.49741,0.45508 0.49741,1.44991 v 3.8629 h -0.67733 l -0.17992,-0.80433 h -0.0423 q -0.37041,0.46567 -0.78316,0.68792 -0.41275,0.22225 -1.12183,0.22225 -0.77258,0 -1.28058,-0.40217 -0.508,-0.41275 -0.508,-1.28058 0,-0.84666 0.66675,-1.30174 0.66675,-0.46567 2.05316,-0.508 l 0.96308,-0.0318 v -0.33867 q 0,-0.70908 -0.30692,-0.98424 -0.30691,-0.27517 -0.86783,-0.27517 -0.4445,0 -0.84666,0.13758 -0.40217,0.127 -0.75142,0.29634 l -0.28575,-0.6985 q 0.37042,-0.20108 0.87842,-0.33867 0.508,-0.14816 1.05833,-0.14816 z m 1.11125,2.99507 -0.83609,0.0318 q -1.05833,0.0423 -1.47107,0.33867 -0.40217,0.29633 -0.40217,0.83608 0,0.47624 0.28575,0.69849 0.29633,0.22225 0.75141,0.22225 0.70908,0 1.18533,-0.39158 0.48684,-0.40216 0.48684,-1.22766 z m 3.60891,2.77282 h -0.93133 v -8.0433 h 0.93133 z m 2.73049,0 h -0.93133 v -8.0433 h 0.93133 z m 1.66157,-0.57149 q 0,-0.39159 0.1905,-0.55034 0.1905,-0.15874 0.45508,-0.15874 0.26458,0 0.46566,0.15874 0.20109,0.15875 0.20109,0.55034 0,0.381 -0.20109,0.55033 -0.20108,0.16933 -0.46566,0.16933 -0.26458,0 -0.45508,-0.16933 -0.1905,-0.16933 -0.1905,-0.55033 z m 3.45015,-7.2284 q 0.21166,0 0.37041,0.14817 0.16934,0.13758 0.16934,0.4445 0,0.30691 -0.16934,0.45508 -0.15875,0.13758 -0.37041,0.13758 -0.23283,0 -0.39158,-0.13758 -0.15875,-0.14817 -0.15875,-0.45508 0,-0.30692 0.15875,-0.4445 0.15875,-0.14817 0.39158,-0.14817 z m 0.45508,2.12725 v 5.67264 h -0.93133 v -5.67264 z m 6.73097,2.82574 q 0,1.40758 -0.71966,2.18016 -0.70908,0.77258 -1.92616,0.77258 -0.75142,0 -1.34408,-0.33867 -0.58208,-0.34925 -0.92075,-1.00541 -0.33866,-0.66675 -0.33866,-1.60866 0,-1.40758 0.69849,-2.16958 0.70908,-0.762 1.93675,-0.762 0.76199,0 1.35466,0.34925 0.59266,0.33867 0.92075,0.99483 0.33866,0.64558 0.33866,1.5875 z m -4.28623,0 q 0,1.00541 0.39158,1.59808 0.40216,0.58208 1.26999,0.58208 0.85725,0 1.25942,-0.58208 0.40216,-0.59267 0.40216,-1.59808 0,-1.00542 -0.40216,-1.57691 -0.40217,-0.5715 -1.27,-0.5715 -0.86783,0 -1.25941,0.5715 -0.39158,0.57149 -0.39158,1.57691 z"
         id="text1"
         style="font-size:10.5833px;stroke-width:0.0700043"
         aria-label="dev@clashball.io" />
    </g>
  </g>
</svg>
