<?xml version="1.0" encoding="UTF-8" standalone="no"?>
<svg
   width="366px"
   height="136px"
   viewBox="0 0 366 136"
   version="1.1"
   id="svg1"
   sodipodi:docname="desktop-hint-SPACE.svg"
   inkscape:version="1.3.2 (091e20e, 2023-11-25, custom)"
   xmlns:inkscape="http://www.inkscape.org/namespaces/inkscape"
   xmlns:sodipodi="http://sodipodi.sourceforge.net/DTD/sodipodi-0.dtd"
   xmlns:xlink="http://www.w3.org/1999/xlink"
   xmlns="http://www.w3.org/2000/svg"
   xmlns:svg="http://www.w3.org/2000/svg"
   xmlns:rdf="http://www.w3.org/1999/02/22-rdf-syntax-ns#"
   xmlns:cc="http://creativecommons.org/ns#"
   xmlns:dc="http://purl.org/dc/elements/1.1/">
  <sodipodi:namedview
     id="namedview1"
     pagecolor="#ffffff"
     bordercolor="#666666"
     borderopacity="1.0"
     inkscape:showpageshadow="2"
     inkscape:pageopacity="0.0"
     inkscape:pagecheckerboard="0"
     inkscape:deskcolor="#d1d1d1"
     inkscape:zoom="1.8490437"
     inkscape:cx="-60.301441"
     inkscape:cy="55.97488"
     inkscape:window-width="3440"
     inkscape:window-height="1373"
     inkscape:window-x="-9"
     inkscape:window-y="-9"
     inkscape:window-maximized="1"
     inkscape:current-layer="desktop-hint-SPACE" />
  <!-- Generator: Sketch 43.2 (39069) - http://www.bohemiancoding.com/sketch -->
  <title
     id="title1">desktop-hint-SPACE</title>
  <desc
     id="desc1">Created with Sketch.</desc>
  <defs
     id="defs1">
    <rect
       id="path-1"
       x="36"
       y="19"
       width="294"
       height="76"
       rx="6" />
  </defs>
  <g
     id="Page-1"
     stroke="none"
     stroke-width="1"
     fill="none"
     fill-rule="evenodd">
    <g
       id="desktop-hint-SPACE">
      <rect
         id="Rectangle-Copy-2"
         fill="#FFFFFF"
         x="154"
         y="13"
         width="56"
         height="52" />
      <rect
         id="Rectangle-2-Copy-3"
         fill="#000000"
         x="24"
         y="20"
         width="319"
         height="97"
         rx="9" />
      <g
         id="Rectangle-2-Copy-4"
         stroke-linecap="round"
         stroke-linejoin="round">
        <use
           fill="#000000"
           fill-rule="evenodd"
           xlink:href="#path-1"
           id="use1" />
        <rect
           stroke="#FFFFFF"
           stroke-width="6"
           x="33"
           y="16"
           width="300"
           height="82"
           rx="6"
           id="rect1" />
      </g>
      <path
         d="m 130.41211,63.257812 c 0,2.164725 -0.55745,4.109692 -1.67236,5.834961 -1.11492,1.72527 -2.74658,3.076167 -4.89502,4.052735 -2.14845,0.976567 -4.69563,1.464844 -7.6416,1.464844 -3.53192,0 -6.44531,-0.667312 -8.74024,-2.001954 -1.62761,-0.960291 -2.95003,-2.242016 -3.96729,-3.845214 -1.01725,-1.603198 -1.52587,-3.161614 -1.52587,-4.675293 0,-0.878911 0.30517,-1.63167 0.91552,-2.258301 0.61036,-0.626631 1.38753,-0.939942 2.33155,-0.939942 0.76498,0 1.41194,0.244139 1.94091,0.732422 0.52898,0.488284 0.98063,1.212561 1.35498,2.172852 0.45574,1.139328 0.94808,2.091467 1.47706,2.856445 0.52897,0.764978 1.27359,1.395668 2.23388,1.89209 0.96029,0.496422 2.22168,0.744629 3.78418,0.744629 2.14845,0 3.89404,-0.500483 5.23682,-1.501465 1.34278,-1.000981 2.01416,-2.250155 2.01416,-3.747559 0,-1.188156 -0.36214,-2.152502 -1.08643,-2.893066 -0.72428,-0.740563 -1.66015,-1.30615 -2.80761,-1.696777 -1.14747,-0.390627 -2.68147,-0.805662 -4.60206,-1.245117 -2.57162,-0.602217 -4.72411,-1.306149 -6.45751,-2.111817 -1.73341,-0.805668 -3.10872,-1.90429 -4.12598,-3.295898 -1.01726,-1.391609 -1.52588,-3.120921 -1.52588,-5.187989 0,-1.969411 0.5371,-3.719067 1.61133,-5.249023 1.07422,-1.529956 2.62857,-2.705888 4.66308,-3.527832 2.03452,-0.821944 4.42707,-1.23291 7.17774,-1.23291 2.19728,0 4.09748,0.272621 5.70068,0.817871 1.6032,0.54525 2.93375,1.269527 3.9917,2.172852 1.05795,0.903324 1.83105,1.851394 2.31934,2.844238 0.48828,0.992843 0.73242,1.961258 0.73242,2.905273 0,0.862635 -0.30517,1.639808 -0.91553,2.331543 -0.61035,0.691735 -1.37125,1.037598 -2.28271,1.037598 -0.83008,0 -1.46077,-0.207518 -1.89209,-0.622559 -0.43132,-0.415041 -0.89925,-1.094559 -1.40381,-2.038574 -0.65105,-1.350918 -1.43229,-2.404781 -2.34375,-3.161621 -0.91146,-0.75684 -2.37629,-1.135254 -4.39453,-1.135254 -1.87176,0 -3.38134,0.410966 -4.52881,1.23291 -1.14747,0.821944 -1.72119,1.810704 -1.72119,2.966309 0,0.716149 0.19531,1.334633 0.58594,1.855468 0.39062,0.520836 0.92773,0.968423 1.61132,1.342774 0.6836,0.374351 1.37532,0.667317 2.0752,0.878906 0.69987,0.21159 1.85546,0.520831 3.46679,0.927735 2.01825,0.472007 3.84521,0.992835 5.48096,1.5625 1.63575,0.569664 3.02734,1.261389 4.17481,2.075195 1.14746,0.813806 2.04264,1.843255 2.68554,3.088379 0.64291,1.245123 0.96436,2.770987 0.96436,4.577636 z m 20.04394,-3.198242 h -6.64062 v 10.131836 c 0,1.448575 -0.34179,2.547197 -1.02539,3.295899 -0.6836,0.748701 -1.54622,1.123047 -2.58789,1.123047 -1.0905,0 -1.9694,-0.370277 -2.63672,-1.11084 -0.66732,-0.740564 -1.00098,-1.826979 -1.00098,-3.259278 v -27.58789 c 0,-1.59506 0.36621,-2.734372 1.09864,-3.417969 0.73242,-0.683597 1.89615,-1.025391 3.49121,-1.025391 h 9.30175 c 2.75067,0 4.86653,0.211587 6.34766,0.634766 1.46485,0.406903 2.7303,1.082352 3.79639,2.026367 1.06608,0.944015 1.87581,2.099603 2.4292,3.466797 0.55338,1.367194 0.83007,2.905265 0.83007,4.614258 0,3.645851 -1.12303,6.408682 -3.36914,8.288574 -2.2461,1.879892 -5.59079,2.819824 -10.03418,2.819824 z m -1.75781,-16.40625 h -4.88281 v 10.9375 h 4.88281 c 1.70899,0 3.1372,-0.179034 4.28467,-0.537109 1.14747,-0.358075 2.02229,-0.944006 2.62451,-1.757813 0.60222,-0.813806 0.90332,-1.879876 0.90332,-3.198242 0,-1.578784 -0.46386,-2.864578 -1.3916,-3.857422 -1.04167,-1.057948 -3.18195,-1.586914 -6.4209,-1.586914 z m 39.72168,26.293946 -1.70898,-4.492188 h -14.55078 l -1.70899,4.589844 c -0.66732,1.790373 -1.23698,2.998857 -1.70898,3.625488 -0.47201,0.626631 -1.24511,0.939942 -2.31934,0.939942 -0.91146,0 -1.71712,-0.333656 -2.41699,-1.000977 -0.69987,-0.667321 -1.04981,-1.424149 -1.04981,-2.270508 0,-0.488284 0.0814,-0.992836 0.24414,-1.513672 0.16277,-0.520836 0.43132,-1.245112 0.80567,-2.172851 l 9.15527,-23.242188 c 0.26042,-0.667321 0.57373,-1.468908 0.93994,-2.404785 0.36622,-0.935877 0.75684,-1.71305 1.17188,-2.331543 0.41504,-0.618493 0.96028,-1.118976 1.63574,-1.501465 0.67546,-0.382489 1.5096,-0.57373 2.50244,-0.57373 1.00912,0 1.8514,0.191241 2.52686,0.57373 0.67546,0.382489 1.2207,0.874835 1.63574,1.477051 0.41504,0.602217 0.76497,1.249183 1.0498,1.940918 0.28484,0.691735 0.64698,1.615391 1.08643,2.770996 l 9.35059,23.095703 c 0.73242,1.757822 1.09863,3.035478 1.09863,3.833008 0,0.830082 -0.34586,1.59098 -1.0376,2.282715 -0.69173,0.691735 -1.52587,1.037598 -2.50244,1.037598 -0.56966,0 -1.05794,-0.101725 -1.46484,-0.305176 -0.40691,-0.203452 -0.7487,-0.480142 -1.02539,-0.830078 -0.2767,-0.349937 -0.57373,-0.887041 -0.89112,-1.611328 -0.31738,-0.724288 -0.59,-1.363116 -0.81787,-1.916504 z m -14.35547,-9.936524 h 10.69336 L 179.3623,45.240234 Z m 56.66504,2.685547 c 0,1.139329 -0.28076,2.372226 -0.84228,3.69873 -0.56153,1.326505 -1.4445,2.628575 -2.64893,3.906251 -1.20443,1.277675 -2.7425,2.315263 -4.61426,3.112792 -1.87175,0.79753 -4.05272,1.19629 -6.54297,1.19629 -1.88803,0 -3.60513,-0.179035 -5.15136,-0.53711 -1.54623,-0.358074 -2.95003,-0.915523 -4.21143,-1.672363 -1.2614,-0.75684 -2.42105,-1.753737 -3.479,-2.990723 -0.94402,-1.123052 -1.74967,-2.380364 -2.41699,-3.771972 -0.66733,-1.391609 -1.16781,-2.876783 -1.50147,-4.455567 -0.33366,-1.578784 -0.50049,-3.255199 -0.50049,-5.029297 0,-2.880874 0.41911,-5.4606 1.25733,-7.739258 0.83822,-2.278657 2.03856,-4.227693 3.60107,-5.847168 1.56251,-1.619474 3.39354,-2.852372 5.49316,-3.69873 2.09962,-0.846358 4.33756,-1.269531 6.71387,-1.269531 2.89715,0 5.47688,0.577793 7.73926,1.733398 2.26238,1.155605 3.99576,2.583813 5.20019,4.284668 1.20444,1.700855 1.80665,3.308098 1.80665,4.821778 0,0.830082 -0.29297,1.562496 -0.87891,2.197265 -0.58594,0.634769 -1.29394,0.952149 -2.12402,0.952149 -0.92774,0 -1.62354,-0.219725 -2.08741,-0.65918 -0.46387,-0.439455 -0.98063,-1.196284 -1.55029,-2.270508 -0.94401,-1.774097 -2.05484,-3.100581 -3.33252,-3.979492 -1.27767,-0.878911 -2.85237,-1.318359 -4.72412,-1.318359 -2.97853,0 -5.35074,1.131173 -7.1167,3.393554 -1.76596,2.262381 -2.64893,5.476867 -2.64893,9.643555 0,2.783217 0.39063,5.098461 1.17188,6.945801 0.78125,1.84734 1.88801,3.22672 3.32031,4.138183 1.4323,0.911463 3.10872,1.367188 5.0293,1.367188 2.08334,0 3.84521,-0.516759 5.28564,-1.550293 1.44044,-1.033534 2.52686,-2.55126 3.25928,-4.553223 0.30925,-0.944015 0.69173,-1.71305 1.14746,-2.307129 0.45573,-0.594078 1.18815,-0.891113 2.19727,-0.891113 0.86263,0 1.60318,0.301104 2.22168,0.90332 0.61849,0.602217 0.92773,1.350907 0.92773,2.246094 z m 30.10254,-18.896484 h -16.33301 v 8.789062 h 15.03907 c 1.10677,0 1.93277,0.248207 2.47802,0.744629 0.54525,0.496422 0.81787,1.151526 0.81787,1.965332 0,0.813806 -0.26855,1.477048 -0.80566,1.989746 -0.53711,0.512698 -1.36718,0.769043 -2.49023,0.769043 h -15.03907 v 10.180664 h 16.89453 c 1.13933,0 1.99789,0.264483 2.57569,0.793457 0.5778,0.528974 0.8667,1.232906 0.8667,2.111817 0,0.846358 -0.2889,1.534014 -0.8667,2.062988 C 263.39144,73.735517 262.53288,74 261.39355,74 h -19.70214 c -1.57879,0 -2.71403,-0.349931 -3.40577,-1.049805 -0.69173,-0.699873 -1.03759,-1.831047 -1.03759,-3.393554 V 42.652344 c 0,-1.041672 0.15462,-1.892087 0.46386,-2.55127 0.30925,-0.659183 0.79346,-1.139321 1.45264,-1.44043 0.65918,-0.301108 1.50146,-0.45166 2.52686,-0.45166 h 19.14062 c 1.15561,0 2.01416,0.256346 2.57568,0.769043 0.56153,0.512698 0.84229,1.184078 0.84229,2.01416 0,0.846359 -0.28076,1.525877 -0.84229,2.038575 -0.56152,0.512698 -1.42007,0.769043 -2.57568,0.769043 z"
         id="SPACE"
         fill="#ffffff" />
    </g>
  </g>
  <metadata
     id="metadata1">
    <rdf:RDF>
      <cc:Work
         rdf:about="">
        <dc:title>desktop-hint-SPACE</dc:title>
      </cc:Work>
    </rdf:RDF>
  </metadata>
</svg>
