<?xml version="1.0" encoding="UTF-8" standalone="no"?>
<svg
   width="366px"
   height="271px"
   viewBox="0 0 366 271"
   version="1.1"
   id="svg4"
   sodipodi:docname="desktop-hint-BLOCK.svg"
   inkscape:version="1.3.2 (091e20e, 2023-11-25, custom)"
   xmlns:inkscape="http://www.inkscape.org/namespaces/inkscape"
   xmlns:sodipodi="http://sodipodi.sourceforge.net/DTD/sodipodi-0.dtd"
   xmlns:xlink="http://www.w3.org/1999/xlink"
   xmlns="http://www.w3.org/2000/svg"
   xmlns:svg="http://www.w3.org/2000/svg"
   xmlns:rdf="http://www.w3.org/1999/02/22-rdf-syntax-ns#"
   xmlns:cc="http://creativecommons.org/ns#"
   xmlns:dc="http://purl.org/dc/elements/1.1/">
  <sodipodi:namedview
     id="namedview4"
     pagecolor="#ffffff"
     bordercolor="#666666"
     borderopacity="1.0"
     inkscape:showpageshadow="2"
     inkscape:pageopacity="0.0"
     inkscape:pagecheckerboard="0"
     inkscape:deskcolor="#d1d1d1"
     inkscape:zoom="2.1383764"
     inkscape:cx="191.26661"
     inkscape:cy="98.906816"
     inkscape:window-width="1720"
     inkscape:window-height="1373"
     inkscape:window-x="1711"
     inkscape:window-y="-9"
     inkscape:window-maximized="0"
     inkscape:current-layer="desktop-hint-WASD" />
  <!-- Generator: Sketch 43.2 (39069) - http://www.bohemiancoding.com/sketch -->
  <title
     id="title1">desktop-hint-WASD</title>
  <desc
     id="desc1">Created with Sketch.</desc>
  <defs
     id="defs1">
    <rect
       id="path-1"
       x="125"
       y="31"
       width="76"
       height="76"
       rx="6" />
    <rect
       id="path-2"
       x="145"
       y="148"
       width="76"
       height="76"
       rx="6" />
    <rect
       id="path-3"
       x="262"
       y="148"
       width="76"
       height="76"
       rx="6" />
    <rect
       id="path-4"
       x="28"
       y="148"
       width="76"
       height="76"
       rx="6" />
  </defs>
  <g
     id="Page-1"
     stroke="none"
     stroke-width="1"
     fill="none"
     fill-rule="evenodd">
    <g
       id="desktop-hint-WASD">
      <rect
         id="Rectangle-Copy-3"
         fill="#ffffff"
         x="148.98904"
         y="83.5"
         width="56"
         height="52" />
      <rect
         id="Rectangle-2-Copy-5"
         fill="#000000"
         x="128.98904"
         y="90.5"
         width="97"
         height="97"
         rx="9" />
      <g
         id="Rectangle-2-Copy-6"
         stroke-linecap="round"
         stroke-linejoin="round"
         transform="translate(-123.01096,-58.500001)">
        <use
           fill="#000000"
           fill-rule="evenodd"
           xlink:href="#path-3"
           id="use3"
           transform="translate(0,-2)" />
        <rect
           stroke="#ffffff"
           stroke-width="6"
           x="259"
           y="145"
           width="82"
           height="82"
           rx="6"
           id="rect3" />
      </g>
      <path
         d="m 193.20996,134.70068 c 0,1.13933 -0.28076,2.37222 -0.84228,3.69873 -0.56153,1.3265 -1.4445,2.62857 -2.64893,3.90625 -1.20443,1.27767 -2.7425,2.31526 -4.61426,3.11279 -1.87175,0.79753 -4.05272,1.19629 -6.54297,1.19629 -1.88803,0 -3.60513,-0.17904 -5.15136,-0.53711 -1.54623,-0.35808 -2.95003,-0.91552 -4.21143,-1.67236 -1.2614,-0.75684 -2.42105,-1.75374 -3.479,-2.99073 -0.94402,-1.12305 -1.74967,-2.38036 -2.41699,-3.77197 -0.66733,-1.39161 -1.16781,-2.87678 -1.50147,-4.45557 -0.33366,-1.57878 -0.50049,-3.2552 -0.50049,-5.02929 0,-2.88088 0.41911,-5.4606 1.25733,-7.73926 0.83822,-2.27866 2.03856,-4.22769 3.60107,-5.84717 1.56251,-1.61947 3.39354,-2.85237 5.49316,-3.69873 2.09962,-0.84636 4.33756,-1.26953 6.71387,-1.26953 2.89715,0 5.47688,0.57779 7.73926,1.7334 2.26238,1.1556 3.99576,2.58381 5.20019,4.28467 1.20444,1.70085 1.80665,3.30809 1.80665,4.82177 0,0.83009 -0.29297,1.5625 -0.87891,2.19727 -0.58594,0.63477 -1.29394,0.95215 -2.12402,0.95215 -0.92774,0 -1.62354,-0.21973 -2.08741,-0.65918 -0.46387,-0.43946 -0.98063,-1.19629 -1.55029,-2.27051 -0.94401,-1.7741 -2.05484,-3.10058 -3.33252,-3.97949 -1.27767,-0.87891 -2.85237,-1.31836 -4.72412,-1.31836 -2.97853,0 -5.35074,1.13117 -7.1167,3.39355 -1.76596,2.26238 -2.64893,5.47687 -2.64893,9.64356 0,2.78321 0.39063,5.09846 1.17188,6.9458 0.78125,1.84734 1.88801,3.22672 3.32031,4.13818 1.4323,0.91146 3.10872,1.36719 5.0293,1.36719 2.08334,0 3.84521,-0.51676 5.28564,-1.55029 1.44044,-1.03354 2.52686,-2.55126 3.25928,-4.55323 0.30925,-0.94401 0.69173,-1.71305 1.14746,-2.30712 0.45573,-0.59408 1.18815,-0.89112 2.19727,-0.89112 0.86263,0 1.60318,0.30111 2.22168,0.90332 0.61849,0.60222 0.92773,1.35091 0.92773,2.2461 z"
         id="SPACE"
         fill="#ffffff"
         sodipodi:nodetypes="ssssssscssssssssssssscsssssssscssss" />
    </g>
  </g>
  <metadata
     id="metadata4">
    <rdf:RDF>
      <cc:Work
         rdf:about="">
        <dc:title>desktop-hint-WASD</dc:title>
      </cc:Work>
    </rdf:RDF>
  </metadata>
</svg>
