<?xml version="1.0" encoding="UTF-8" standalone="no"?>
<!-- Generator: Adobe Illustrator 15.0.0, SVG Export Plug-In . SVG Version: 6.00 Build 0)  -->

<svg
   version="1.1"
   x="0px"
   y="0px"
   width="143.592"
   height="143.592"
   viewBox="0 0 143.592 143.592"
   enable-background="new 0 0 200 200"
   xml:space="preserve"
   id="svg647"
   sodipodi:docname="face-ko.svg"
   inkscape:version="1.2.2 (732a01da63, 2022-12-09)"
   xmlns:inkscape="http://www.inkscape.org/namespaces/inkscape"
   xmlns:sodipodi="http://sodipodi.sourceforge.net/DTD/sodipodi-0.dtd"
   xmlns="http://www.w3.org/2000/svg"
   xmlns:svg="http://www.w3.org/2000/svg"><defs
   id="defs651" /><sodipodi:namedview
   id="namedview649"
   pagecolor="#ffffff"
   bordercolor="#666666"
   borderopacity="1.0"
   inkscape:showpageshadow="2"
   inkscape:pageopacity="0.0"
   inkscape:pagecheckerboard="true"
   inkscape:deskcolor="#d1d1d1"
   showgrid="false"
   inkscape:zoom="3.6309933"
   inkscape:cx="-13.08182"
   inkscape:cy="76.425368"
   inkscape:window-width="3440"
   inkscape:window-height="1373"
   inkscape:window-x="-9"
   inkscape:window-y="-9"
   inkscape:window-maximized="1"
   inkscape:current-layer="svg647" />

<g
   id="outline_x5F_black"
   transform="translate(-28.204,-28.204)">
	<g
   id="g593">
		<path
   d="m 100,34.204 c 36.338,0 65.796,29.458 65.796,65.796 0,36.339 -29.458,65.796 -65.796,65.796 -36.339,0 -65.796,-29.457 -65.796,-65.796 0,-36.338 29.457,-65.796 65.796,-65.796 m 0,-6 c -39.589,0 -71.796,32.208 -71.796,71.796 0,39.589 32.208,71.796 71.796,71.796 39.588,0 71.796,-32.207 71.796,-71.796 0,-39.588 -32.207,-71.796 -71.796,-71.796 z"
   id="path591" />
	</g>
</g>
<g
   id="icon"
   transform="translate(-28.204,-28.204)">
	<g
   id="Layer_2">
	</g>
	<g
   id="Layer_1_1_">
		<g
   id="g643">
			
				<radialGradient
   id="SVGID_1_"
   cx="204.7529"
   cy="679.12598"
   r="72.334099"
   fx="205.4431"
   fy="685.28308"
   gradientTransform="translate(-100,-591)"
   gradientUnits="userSpaceOnUse">
				<stop
   offset="0.3804"
   style="stop-color:#FFE300"
   id="stop597" />
				<stop
   offset="1"
   style="stop-color:#F7941E"
   id="stop599" />
			</radialGradient>
			<circle
   fill="url(#SVGID_1_)"
   cx="100"
   cy="100"
   r="65.795998"
   id="circle602"
   style="fill:url(#SVGID_1_)" />
			
				<radialGradient
   id="SVGID_2_"
   cx="228.8047"
   cy="705.99799"
   r="30.326599"
   gradientTransform="translate(-100,-591)"
   gradientUnits="userSpaceOnUse">
				<stop
   offset="0.3804"
   style="stop-color:#FFE300"
   id="stop604" />
				<stop
   offset="1"
   style="stop-color:#F7941E"
   id="stop606" />
			</radialGradient>
			<path
   fill="url(#SVGID_2_)"
   d="m 151.505,131.045 c 2.544,-0.441 5.054,1.945 5.054,1.945 0,0 1.846,6.357 -2.947,10.793 -3.965,3.668 -13.967,6.027 -13.967,6.027 0,0 13.528,-4.979 6.701,-12.86 -1.522,-1.755 1.866,-5.337 5.159,-5.905 z"
   id="path609"
   style="fill:url(#SVGID_2_)" />
			
				<radialGradient
   id="SVGID_3_"
   cx="212.56931"
   cy="728.00293"
   r="31.440201"
   gradientTransform="translate(-100,-591)"
   gradientUnits="userSpaceOnUse">
				<stop
   offset="0.3804"
   style="stop-color:#FFE300"
   id="stop611" />
				<stop
   offset="1"
   style="stop-color:#F7941E"
   id="stop613" />
			</radialGradient>
			<path
   fill="url(#SVGID_3_)"
   d="m 113.902,146.361 c -17,1.465 -29.707,3.623 -39.874,5.703 -2.523,0.518 -4.269,-2.08 -2.634,-5.271 11.554,-15.736 31.155,-27.421 53.337,-24.457 14.541,1.939 23.863,9.438 28.961,17.146 1.857,2.811 -0.402,4.815 -2.666,4.815 -6.535,0.003 -15.991,0.244 -37.124,2.064 z"
   id="path616"
   style="fill:url(#SVGID_3_)" />
			<path
   fill="#603913"
   d="m 114.033,144.729 c -17.001,1.465 -29.706,3.623 -39.872,5.705 -2.523,0.518 -4.27,-2.082 -2.635,-5.271 11.555,-15.737 31.156,-27.421 53.34,-24.457 14.54,1.94 23.862,9.437 28.961,17.146 1.856,2.811 -0.405,4.815 -2.666,4.815 -6.54,0 -15.996,0.241 -37.128,2.062 z"
   id="path618" />
			
				<radialGradient
   id="SVGID_4_"
   cx="120.6572"
   cy="744.02148"
   r="28.7934"
   gradientTransform="matrix(1.0301,-0.0056,-0.0056,1.001,-7.512,-608.7263)"
   gradientUnits="userSpaceOnUse">
				<stop
   offset="0"
   style="stop-color:#830000"
   id="stop620" />
				<stop
   offset="1"
   style="stop-color:#531C00"
   id="stop622" />
			</radialGradient>
			<path
   fill="url(#SVGID_4_)"
   d="m 113.822,143.936 c -16.046,1.431 -28.043,3.474 -37.646,5.433 -2.384,0.485 -4.017,-1.888 -2.458,-4.818 10.979,-14.483 29.531,-25.297 50.445,-22.692 13.706,1.707 22.463,8.528 27.231,15.572 1.738,2.565 -0.404,4.418 -2.539,4.43 -6.167,0.028 -15.087,0.297 -35.033,2.075 z"
   id="path625"
   style="fill:url(#SVGID_4_)" />
			<path
   fill="#603913"
   d="m 59.14,142.667 c 0,0 4.006,9.433 11.462,12.669 7.75,3.365 11.198,2.33 9.701,2.664 -1.497,0.334 -19.663,2 -21.163,-15.333 z"
   id="path627" />
			<path
   fill="#603913"
   d="m 144.621,148.352 c 0,0 -5.742,1.438 -6.195,1.461 -0.453,0.021 3.828,0.621 3.828,0.621 z"
   id="path629" />
			<g
   id="g633">
				<path
   fill="#603913"
   d="m 82.892,96.852 c 1.119,-2.167 1.847,-3.685 2.182,-4.558 1.205,-2.429 1.986,-3.924 2.346,-4.49 0.629,-1.082 1.201,-2.011 1.716,-2.785 C 89.098,84.836 87.719,83.74 85,81.73 c -3.122,-2.321 -4.877,-3.653 -5.266,-3.996 -1.26,-0.812 -2.023,-1.86 -2.288,-3.139 -0.128,-0.614 -0.063,-1.073 0.19,-1.378 0.255,-0.305 0.849,-0.553 1.781,-0.746 0.742,-0.153 1.639,0.149 2.69,0.911 2.005,1.438 3.226,2.438 3.659,3.002 2.625,2.124 4.535,3.629 5.73,4.51 0.375,-0.58 0.729,-1.458 1.062,-2.631 0.332,-1.171 0.574,-1.874 0.724,-2.109 1.181,-3.118 1.998,-4.826 2.452,-5.125 1.227,-0.784 2.078,-1.227 2.555,-1.325 0.229,-0.048 0.471,-0.077 0.726,-0.09 1.315,-0.067 2.076,0.388 2.279,1.367 0.194,0.938 -0.144,2.14 -1.012,3.599 -1.501,2.532 -2.744,5.009 -3.731,7.433 l -0.707,1.76 c -0.032,-0.158 2.118,1.119 6.452,3.831 2.282,1.433 3.619,2.327 4.011,2.682 1.014,0.77 2.025,1.539 3.039,2.311 1.303,1.01 2.037,1.927 2.209,2.749 0.275,1.332 -0.785,2.247 -3.185,2.744 -0.457,0.095 -1.462,-0.256 -3.017,-1.052 -2.658,-1.423 -4.861,-2.619 -6.612,-3.592 L 93.505,89.73 c -1.151,1.724 -2.138,3.146 -2.957,4.27 -1.763,3.565 -2.898,5.604 -3.407,6.117 -0.37,0.515 -0.74,1.025 -1.111,1.539 -0.418,0.562 -0.961,0.914 -1.628,1.052 -1.637,0.34 -2.59,-0.138 -2.857,-1.431 -0.233,-1.123 0.216,-2.598 1.347,-4.425 z"
   id="path631" />
			</g>
			<g
   id="g637">
				<path
   fill="#603913"
   d="m 128.243,92.259 c 1.394,-1.615 2.321,-2.756 2.795,-3.428 1.521,-1.818 2.487,-2.933 2.903,-3.342 0.748,-0.794 1.414,-1.467 1.998,-2.023 0.018,-0.159 -0.774,-1.341 -2.375,-3.537 -1.834,-2.535 -2.857,-3.982 -3.073,-4.342 -0.771,-0.92 -1.101,-1.943 -0.992,-3.068 0.053,-0.54 0.213,-0.914 0.483,-1.124 0.271,-0.208 0.787,-0.306 1.554,-0.296 0.606,0.01 1.226,0.432 1.847,1.27 1.191,1.58 1.885,2.65 2.081,3.207 1.498,2.273 2.601,3.896 3.304,4.859 0.433,-0.417 0.918,-1.09 1.461,-2.014 0.543,-0.924 0.9,-1.471 1.073,-1.642 1.671,-2.403 2.718,-3.688 3.142,-3.854 1.136,-0.432 1.897,-0.645 2.289,-0.64 0.188,0.003 0.379,0.023 0.58,0.06 1.028,0.189 1.502,0.713 1.418,1.575 -0.08,0.825 -0.633,1.772 -1.658,2.84 -1.772,1.851 -3.336,3.702 -4.688,5.558 l -0.974,1.348 c 0.014,-0.139 1.354,1.337 4.024,4.426 1.404,1.629 2.215,2.631 2.431,3.002 0.591,0.837 1.182,1.674 1.771,2.51 0.756,1.093 1.098,2.002 1.026,2.725 -0.113,1.172 -1.153,1.744 -3.12,1.715 -0.375,-0.005 -1.062,-0.486 -2.062,-1.445 -1.696,-1.693 -3.101,-3.109 -4.209,-4.254 l -3.119,-4.101 c -1.308,1.235 -2.414,2.249 -3.317,3.041 -2.229,2.671 -3.603,4.175 -4.118,4.512 -0.408,0.364 -0.818,0.726 -1.23,1.089 -0.459,0.396 -0.961,0.589 -1.508,0.58 -1.345,-0.018 -1.961,-0.596 -1.851,-1.732 0.092,-0.991 0.798,-2.148 2.114,-3.475 z"
   id="path635" />
			</g>
			<path
   fill="#603913"
   d="m 85.648,54.2 c 3.369,-1.261 6.854,-1.11 9.585,0.146 -2.521,-2.998 -6.723,-4.254 -10.582,-2.81 -3.857,1.443 -6.204,5.149 -6.137,9.065 1.235,-2.739 3.765,-5.14 7.134,-6.401 z"
   id="path639" />
			<path
   fill="#603913"
   d="m 138.752,53.917 c 3.538,0.695 6.346,2.633 7.878,5.104 -0.338,-3.821 -3.096,-7.057 -7.146,-7.854 -4.051,-0.797 -8.17,1.087 -10.406,4.4 2.628,-1.65 6.137,-2.345 9.674,-1.65 z"
   id="path641" />
		</g>
	</g>
</g>
</svg>
