<?xml version="1.0" encoding="UTF-8" standalone="no"?>
<!-- Created with Inkscape (http://www.inkscape.org/) -->

<svg
   width="102.67924mm"
   height="89.594643mm"
   viewBox="0 0 102.67923 89.594645"
   version="1.1"
   id="svg966"
   xml:space="preserve"
   inkscape:version="1.3.2 (091e20e, 2023-11-25, custom)"
   sodipodi:docname="icon-xp.svg"
   xmlns:inkscape="http://www.inkscape.org/namespaces/inkscape"
   xmlns:sodipodi="http://sodipodi.sourceforge.net/DTD/sodipodi-0.dtd"
   xmlns="http://www.w3.org/2000/svg"
   xmlns:svg="http://www.w3.org/2000/svg"><sodipodi:namedview
     id="namedview968"
     pagecolor="#ffffff"
     bordercolor="#666666"
     borderopacity="1.0"
     inkscape:showpageshadow="2"
     inkscape:pageopacity="0.0"
     inkscape:pagecheckerboard="true"
     inkscape:deskcolor="#d1d1d1"
     inkscape:document-units="mm"
     showgrid="false"
     inkscape:zoom="1"
     inkscape:cx="202"
     inkscape:cy="46.5"
     inkscape:window-width="1718"
     inkscape:window-height="1363"
     inkscape:window-x="1712"
     inkscape:window-y="0"
     inkscape:window-maximized="0"
     inkscape:current-layer="layer1" /><defs
     id="defs963" /><g
     inkscape:label="Layer 1"
     inkscape:groupmode="layer"
     id="layer1"
     transform="translate(-72.46372,-98.683455)"><path
       sodipodi:type="star"
       style="fill:#ff6f00;fill-opacity:1;stroke:#803800;stroke-width:18.9506;stroke-linecap:round;stroke-linejoin:round;stroke-dasharray:none;stroke-opacity:1"
       id="path1"
       inkscape:flatsided="true"
       sodipodi:sides="6"
       sodipodi:cx="-190"
       sodipodi:cy="192"
       sodipodi:r1="184.56435"
       sodipodi:r2="159.83742"
       sodipodi:arg1="0.52359878"
       sodipodi:arg2="1.0471976"
       inkscape:rounded="0"
       inkscape:randomized="0"
       d="M -30.162588,284.28217 -190,376.56435 l -159.83741,-92.28218 0,-184.564344 L -190,7.4356537 -30.162587,99.717828 Z"
       transform="matrix(0,-0.26458333,0.26458333,0,73.003338,93.209944)" /><path
       d="m 114.8957,143.48079 9.95696,10.9477 q 1.68426,1.88241 1.68426,3.17037 0,1.28797 -1.93194,3.02177 -1.88241,1.7338 -3.21992,1.7338 -1.28796,0 -3.02176,-1.98149 l -9.41205,-10.79909 -9.412048,10.79909 q -1.783336,1.98149 -3.0713,1.98149 -1.238428,0 -3.219912,-1.7338 -1.931947,-1.78334 -1.931947,-3.02177 0,-1.23842 1.733799,-3.17037 l 9.956958,-10.9477 -9.956958,-10.9477 q -1.733799,-1.83287 -1.733799,-3.12084 0,-1.28796 1.931947,-3.02176 1.931947,-1.78334 3.219912,-1.78334 1.337501,0 3.0713,1.98149 l 9.412048,10.79909 9.41205,-10.79909 q 1.78334,-1.98149 3.02176,-1.98149 1.28797,0 3.21992,1.7338 1.93194,1.7338 1.93194,3.0713 0,1.3375 -1.68426,3.12084 z m 41.1653,-10.60094 q 1.28796,2.62547 1.28796,5.84538 0,3.21991 -1.28796,5.84538 -1.28797,2.57593 -3.31899,4.11158 -4.11158,3.17037 -8.52038,3.17037 h -6.19214 v 5.59769 q 0,1.13936 -0.0991,1.7338 -0.0495,0.54491 -0.44584,1.28797 -0.69352,1.3375 -3.86389,1.3375 -3.4676,0 -4.06204,-1.83288 -0.29722,-0.84213 -0.29722,-2.57592 v -27.4931 q 0,-1.13935 0.0495,-1.68426 0.0991,-0.59444 0.49537,-1.3375 0.69352,-1.3375 3.8639,-1.3375 h 10.60094 q 4.35926,0 8.47084,3.17037 2.03102,1.53565 3.31899,4.16112 z m -11.78983,10.20464 q 1.48611,0 2.92269,-1.08981 1.43657,-1.08982 1.43657,-3.26945 0,-2.17963 -1.43657,-3.26945 -1.43658,-1.13935 -2.97223,-1.13935 h -6.19214 v 8.76806 z"
       id="text1"
       style="font-size:49.5371px;line-height:1.25;font-family:'Fredoka One';-inkscape-font-specification:'Fredoka One, Normal';text-align:end;letter-spacing:0px;word-spacing:0px;text-anchor:end;fill:#ffffff;stroke-width:0.264583"
       aria-label="XP" /></g></svg>
