<?xml version="1.0" encoding="UTF-8" standalone="no"?>
<!-- Created with Inkscape (http://www.inkscape.org/) -->

<svg
   width="300"
   height="300"
   viewBox="0 0 79.374999 79.375003"
   version="1.1"
   id="svg8"
   inkscape:version="1.3.2 (091e20e, 2023-11-25, custom)"
   sodipodi:docname="mobile-hint-look.svg"
   xmlns:inkscape="http://www.inkscape.org/namespaces/inkscape"
   xmlns:sodipodi="http://sodipodi.sourceforge.net/DTD/sodipodi-0.dtd"
   xmlns="http://www.w3.org/2000/svg"
   xmlns:svg="http://www.w3.org/2000/svg"
   xmlns:rdf="http://www.w3.org/1999/02/22-rdf-syntax-ns#"
   xmlns:cc="http://creativecommons.org/ns#"
   xmlns:dc="http://purl.org/dc/elements/1.1/">
  <defs
     id="defs2" />
  <sodipodi:namedview
     id="base"
     pagecolor="#ffffff"
     bordercolor="#666666"
     borderopacity="1.0"
     inkscape:pageopacity="0.0"
     inkscape:pageshadow="2"
     inkscape:zoom="0.35"
     inkscape:cx="47.142857"
     inkscape:cy="-278.57143"
     inkscape:document-units="px"
     inkscape:current-layer="layer1"
     showgrid="false"
     units="px"
     inkscape:window-width="1718"
     inkscape:window-height="1363"
     inkscape:window-x="-8"
     inkscape:window-y="0"
     inkscape:window-maximized="0"
     fit-margin-top="0"
     fit-margin-left="0"
     fit-margin-right="0"
     fit-margin-bottom="0"
     inkscape:showpageshadow="2"
     inkscape:pagecheckerboard="0"
     inkscape:deskcolor="#d1d1d1" />
  <metadata
     id="metadata5">
    <rdf:RDF>
      <cc:Work
         rdf:about="">
        <dc:format>image/svg+xml</dc:format>
        <dc:type
           rdf:resource="http://purl.org/dc/dcmitype/StillImage" />
      </cc:Work>
    </rdf:RDF>
  </metadata>
  <g
     inkscape:label="Layer 1"
     inkscape:groupmode="layer"
     id="layer1"
     transform="translate(-85.763974,-60.500844)">
    <g
       inkscape:export-ydpi="163.84"
       inkscape:export-xdpi="163.84"
       inkscape:export-filename="D:\ApplisData\fallguys.io\web\ui\mobile-hint-2.png"
       id="g4624"
       transform="translate(82.853554,-146.99824)">
      <rect
         ry="13.21446"
         y="207.49908"
         x="2.9104197"
         height="79.375"
         width="79.375"
         id="rect4590"
         style="opacity:0.355;vector-effect:none;fill:#000000;fill-opacity:1;stroke:none;stroke-width:2.18933;stroke-linecap:round;stroke-linejoin:round;stroke-miterlimit:4;stroke-dasharray:none;stroke-dashoffset:0;stroke-opacity:1;paint-order:normal" />
      <path
         style="fill:#ffffff;stroke-width:0.181159"
         id="path4592"
         d="m 69.215863,272.4781 -2.266302,-4.42699 0.218297,-3.27481 c 0.09782,-1.41884 -0.192029,-2.84094 -0.838224,-4.11213 l -3.882967,-7.63822 c -0.474273,-0.89221 -1.939851,-1.84764 -3.365574,-1.84764 -0.288406,0 -0.568116,0.0382 -0.830252,0.1134 -0.415036,0.11812 -1.243658,0.24529 -2.044925,0.36812 -1.002535,0.15362 -2.039308,0.31268 -2.749089,0.51304 -0.366305,0.10254 -1.16558,0.23316 -1.938947,0.35942 -1.024276,0.16739 -2.083694,0.34058 -2.777532,0.53605 -0.678622,0.19203 -1.28587,0.50906 -1.761773,0.90399 -1.571194,-2.36775 -5.33858,-8.03985 -5.912856,-8.88205 l 0.0042,-0.003 c -0.509601,-0.77952 -1.291122,-1.20887 -2.200902,-1.20887 -1.06902,0 -2.129163,0.60326 -2.700539,1.53732 -0.504891,0.82518 -0.542936,1.79076 -0.105074,2.64728 l 8.851075,17.43385 c -0.286957,0.0799 -0.702355,0.16159 -1.201084,0.16159 -0.758696,0 -1.494745,-0.18985 -2.189128,-0.56521 l -0.197644,-0.10634 c -0.249457,-0.13424 -0.479348,-0.25797 -0.696016,-0.37609 -0.560869,-0.30199 -1.139309,-0.45489 -1.719561,-0.45489 -1.16558,0 -2.209962,0.6346 -2.725722,1.65616 -0.530614,1.05072 -0.395287,2.29057 0.361775,3.31648 1.422099,1.92699 6.008688,5.60379 12.888027,7.96285 l 2.207786,4.32246 c 0.324456,0.63822 0.972461,1.03478 1.690939,1.03478 0,0 0,0 1.8e-4,0 0.295471,0 0.591304,-0.0708 0.855073,-0.20489 l 14.198169,-7.21739 c 0.449818,-0.2288 0.784238,-0.61992 0.94112,-1.10163 0.156885,-0.48152 0.117573,-0.99456 -0.112498,-1.44673 z"
         inkscape:connector-curvature="0" />
      <text
         id="text4596"
         y="219.27534"
         x="19.827858"
         style="font-style:normal;font-weight:normal;font-size:8.97284px;line-height:1.25;font-family:sans-serif;letter-spacing:0px;word-spacing:0px;fill:#ffffff;fill-opacity:1;stroke:none;stroke-width:0.224321"
         xml:space="preserve"><tspan
           style="font-style:normal;font-variant:normal;font-weight:normal;font-stretch:normal;font-size:7.76111px;font-family:'Fredoka One';-inkscape-font-specification:'Fredoka One, Normal';font-variant-ligatures:normal;font-variant-caps:normal;font-variant-numeric:normal;font-feature-settings:normal;text-align:start;writing-mode:lr-tb;text-anchor:start;fill:#ffffff;stroke-width:0.224321"
           y="219.27534"
           x="19.827858"
           id="tspan4594"
           sodipodi:role="line">Drag to Look</tspan></text>
      <circle
         r="4.2763128"
         cy="245.52997"
         cx="-36.591812"
         id="circle4598"
         style="opacity:0.5;vector-effect:none;fill:#ffffff;fill-opacity:1;stroke:#ffffff;stroke-width:2.64583;stroke-linecap:round;stroke-linejoin:round;stroke-miterlimit:4;stroke-dasharray:none;stroke-dashoffset:0;stroke-opacity:1;paint-order:normal"
         transform="scale(-1,1)" />
      <g
         transform="matrix(-0.21515042,-0.02038182,-0.02038182,0.21515042,166.07903,134.17584)"
         style="stroke:#ffffff;stroke-width:10;stroke-miterlimit:4;stroke-dasharray:none"
         id="g4604">
        <path
           style="fill:none;stroke:#ffffff;stroke-width:10;stroke-linecap:round;stroke-linejoin:miter;stroke-miterlimit:4;stroke-dasharray:none;stroke-opacity:1"
           d="m 585.57843,570.57758 47.14286,2.85714"
           id="path4600"
           inkscape:connector-curvature="0" />
        <path
           sodipodi:nodetypes="assassassa"
           style="fill:#ffffff;stroke:none;stroke-width:10;stroke-linecap:round;stroke-linejoin:miter;stroke-miterlimit:4;stroke-dasharray:none;stroke-opacity:1"
           d="m 626.47129,551.55972 c 1.47735,0.0907 2.38068,1.84943 3.1904,3.08843 l 9.73122,14.89029 c 0.82313,1.25952 1.29738,2.4757 1.22622,3.807 -0.0749,1.40211 -0.72978,2.7146 -1.71147,3.84897 l -12.89512,14.90072 c -0.96821,1.1188 -1.99751,2.91471 -3.46982,2.76817 -1.45418,-0.14474 -2.93824,-1.89933 -2.82094,-3.35598 l 2.9884,-37.10921 c 0.12608,-1.56558 2.19342,-2.93467 3.76111,-2.83839 z"
           id="path4602"
           inkscape:connector-curvature="0" />
      </g>
      <g
         id="g4610"
         style="stroke:#ffffff;stroke-width:10;stroke-miterlimit:4;stroke-dasharray:none"
         transform="matrix(0.21515043,0.0203818,0.0203818,-0.21515043,-92.240003,355.63912)">
        <path
           inkscape:connector-curvature="0"
           id="path4606"
           d="m 585.57843,570.57758 47.14286,2.85714"
           style="fill:none;stroke:#ffffff;stroke-width:10;stroke-linecap:round;stroke-linejoin:miter;stroke-miterlimit:4;stroke-dasharray:none;stroke-opacity:1" />
        <path
           inkscape:connector-curvature="0"
           id="path4608"
           d="m 626.47129,551.55972 c 1.47735,0.0907 2.38068,1.84943 3.1904,3.08843 l 9.73122,14.89029 c 0.82313,1.25952 1.29738,2.4757 1.22622,3.807 -0.0749,1.40211 -0.72978,2.7146 -1.71147,3.84897 l -12.89512,14.90072 c -0.96821,1.1188 -1.99751,2.91471 -3.46982,2.76817 -1.45418,-0.14474 -2.93824,-1.89933 -2.82094,-3.35598 l 2.9884,-37.10921 c 0.12608,-1.56558 2.19342,-2.93467 3.76111,-2.83839 z"
           style="fill:#ffffff;stroke:none;stroke-width:10;stroke-linecap:round;stroke-linejoin:miter;stroke-miterlimit:4;stroke-dasharray:none;stroke-opacity:1"
           sodipodi:nodetypes="assassassa" />
      </g>
      <g
         transform="matrix(0.0203818,-0.21515043,-0.21515043,-0.0203818,147.48355,375.53174)"
         style="stroke:#ffffff;stroke-width:10;stroke-miterlimit:4;stroke-dasharray:none"
         id="g4616">
        <path
           style="fill:none;stroke:#ffffff;stroke-width:10;stroke-linecap:round;stroke-linejoin:miter;stroke-miterlimit:4;stroke-dasharray:none;stroke-opacity:1"
           d="m 585.57843,570.57758 47.14286,2.85714"
           id="path4612"
           inkscape:connector-curvature="0" />
        <path
           sodipodi:nodetypes="assassassa"
           style="fill:#ffffff;stroke:none;stroke-width:10;stroke-linecap:round;stroke-linejoin:miter;stroke-miterlimit:4;stroke-dasharray:none;stroke-opacity:1"
           d="m 626.47129,551.55972 c 1.47735,0.0907 2.38068,1.84943 3.1904,3.08843 l 9.73122,14.89029 c 0.82313,1.25952 1.29738,2.4757 1.22622,3.807 -0.0749,1.40211 -0.72978,2.7146 -1.71147,3.84897 l -12.89512,14.90072 c -0.96821,1.1188 -1.99751,2.91471 -3.46982,2.76817 -1.45418,-0.14474 -2.93824,-1.89933 -2.82094,-3.35598 l 2.9884,-37.10921 c 0.12608,-1.56558 2.19342,-2.93467 3.76111,-2.83839 z"
           id="path4614"
           inkscape:connector-curvature="0" />
      </g>
      <g
         id="g4622"
         style="stroke:#ffffff;stroke-width:10;stroke-miterlimit:4;stroke-dasharray:none"
         transform="matrix(-0.0203818,0.21515043,0.21515043,0.0203818,-75.451973,115.44672)">
        <path
           inkscape:connector-curvature="0"
           id="path4618"
           d="m 585.57843,570.57758 47.14286,2.85714"
           style="fill:none;stroke:#ffffff;stroke-width:10;stroke-linecap:round;stroke-linejoin:miter;stroke-miterlimit:4;stroke-dasharray:none;stroke-opacity:1" />
        <path
           inkscape:connector-curvature="0"
           id="path4620"
           d="m 626.47129,551.55972 c 1.47735,0.0907 2.38068,1.84943 3.1904,3.08843 l 9.73122,14.89029 c 0.82313,1.25952 1.29738,2.4757 1.22622,3.807 -0.0749,1.40211 -0.72978,2.7146 -1.71147,3.84897 l -12.89512,14.90072 c -0.96821,1.1188 -1.99751,2.91471 -3.46982,2.76817 -1.45418,-0.14474 -2.93824,-1.89933 -2.82094,-3.35598 l 2.9884,-37.10921 c 0.12608,-1.56558 2.19342,-2.93467 3.76111,-2.83839 z"
           style="fill:#ffffff;stroke:none;stroke-width:10;stroke-linecap:round;stroke-linejoin:miter;stroke-miterlimit:4;stroke-dasharray:none;stroke-opacity:1"
           sodipodi:nodetypes="assassassa" />
      </g>
    </g>
  </g>
</svg>
