<?xml version="1.0" encoding="UTF-8" standalone="no"?>
<svg
   enable-background="new 0 0 500 500"
   height="500px"
   id="Layer_1"
   version="1.1"
   viewBox="0 0 500 500"
   width="500px"
   xml:space="preserve"
   sodipodi:docname="touch-jump.svg"
   inkscape:version="1.3.2 (091e20e, 2023-11-25, custom)"
   xmlns:inkscape="http://www.inkscape.org/namespaces/inkscape"
   xmlns:sodipodi="http://sodipodi.sourceforge.net/DTD/sodipodi-0.dtd"
   xmlns="http://www.w3.org/2000/svg"
   xmlns:svg="http://www.w3.org/2000/svg"
   xmlns:rdf="http://www.w3.org/1999/02/22-rdf-syntax-ns#"
   xmlns:cc="http://creativecommons.org/ns#"
   xmlns:dc="http://purl.org/dc/elements/1.1/"><metadata
     id="metadata9"><rdf:RDF><cc:Work
         rdf:about=""><dc:format>image/svg+xml</dc:format><dc:type
           rdf:resource="http://purl.org/dc/dcmitype/StillImage" /></cc:Work></rdf:RDF></metadata><defs
     id="defs7" /><sodipodi:namedview
     pagecolor="#000000"
     bordercolor="#666666"
     borderopacity="1"
     objecttolerance="10"
     gridtolerance="10"
     guidetolerance="10"
     inkscape:pageopacity="0"
     inkscape:pageshadow="2"
     inkscape:window-width="3440"
     inkscape:window-height="1373"
     id="namedview5"
     showgrid="false"
     inkscape:zoom="0.6675088"
     inkscape:cx="561.04129"
     inkscape:cy="197.00115"
     inkscape:window-x="-9"
     inkscape:window-y="-9"
     inkscape:window-maximized="1"
     inkscape:current-layer="Layer_1"
     inkscape:showpageshadow="2"
     inkscape:pagecheckerboard="true"
     inkscape:deskcolor="#d1d1d1" /><path
     d="m 86.552928,173.29314 c -4.002785,4.22067 -6.353477,9.47749 -6.354736,15.13305 0.0037,14.00402 14.469187,25.36061 32.306758,25.36357 l 32.36655,-0.002 c 8.92256,0.002 16.18485,5.703 16.18296,12.70501 l 0.0572,85.15711 c -0.0547,14.0559 14.40689,25.40952 32.31053,25.36653 l 113.21589,0.004 c 17.84322,-0.004 32.3099,-11.36202 32.31053,-25.36652 l 0.0547,-85.16304 c 6.3e-4,-7.00497 7.25977,-12.70402 16.18233,-12.70452 l 32.31116,-0.043 c 17.89862,0.049 32.36654,-11.30965 32.30424,-25.36159 0.0498,-5.61555 -2.29154,-10.86396 -6.29432,-15.08562 L 278.67907,36.371765 c -15.8387,-12.43473 -41.51569,-12.4792 -57.35438,0.04843 z"
     id="path2"
     inkscape:connector-curvature="0"
     style="clip-rule:evenodd;fill:#ffffff;fill-rule:evenodd;stroke:#000000;stroke-width:5;stroke-miterlimit:4;stroke-dasharray:none" /><rect
     style="opacity:1;vector-effect:none;fill:#ffffff;fill-opacity:1;stroke:#000000;stroke-width:5;stroke-linecap:butt;stroke-linejoin:miter;stroke-miterlimit:4;stroke-dasharray:none;stroke-dashoffset:0;stroke-opacity:1"
     id="rect819"
     width="179.573"
     height="56.571724"
     x="160.82237"
     y="358.16943"
     ry="21.47274" /><rect
     ry="13.80442"
     y="436.22223"
     x="160.82237"
     height="36.368893"
     width="179.573"
     id="rect835"
     style="opacity:1;vector-effect:none;fill:#ffffff;fill-opacity:1;stroke:#000000;stroke-width:5;stroke-linecap:butt;stroke-linejoin:miter;stroke-miterlimit:4;stroke-dasharray:none;stroke-dashoffset:0;stroke-opacity:1" /></svg>
