<?xml version="1.0" encoding="UTF-8" standalone="no"?>
<!-- Created with Inkscape (http://www.inkscape.org/) -->

<svg
   width="119.26061mm"
   height="199.35686mm"
   viewBox="0 0 119.26061 199.35686"
   version="1.1"
   id="svg1"
   xml:space="preserve"
   sodipodi:docname="ability-2.svg"
   inkscape:version="1.4 (86a8ad7, 2024-10-11)"
   xmlns:inkscape="http://www.inkscape.org/namespaces/inkscape"
   xmlns:sodipodi="http://sodipodi.sourceforge.net/DTD/sodipodi-0.dtd"
   xmlns:xlink="http://www.w3.org/1999/xlink"
   xmlns="http://www.w3.org/2000/svg"
   xmlns:svg="http://www.w3.org/2000/svg"><sodipodi:namedview
     id="namedview1"
     pagecolor="#ffffff"
     bordercolor="#666666"
     borderopacity="1.0"
     inkscape:showpageshadow="2"
     inkscape:pageopacity="0.0"
     inkscape:pagecheckerboard="true"
     inkscape:deskcolor="#d1d1d1"
     inkscape:document-units="mm"
     inkscape:zoom="0.64"
     inkscape:cx="-132.03125"
     inkscape:cy="-21.09375"
     inkscape:window-width="1718"
     inkscape:window-height="1363"
     inkscape:window-x="1704"
     inkscape:window-y="0"
     inkscape:window-maximized="0"
     inkscape:current-layer="layer1"
     showguides="true" /><defs
     id="defs1"><linearGradient
       id="linearGradient2"
       inkscape:collect="always"><stop
         style="stop-color:#87d7ef;stop-opacity:1;"
         offset="0.22927906"
         id="stop1" /><stop
         style="stop-color:#199fcc;stop-opacity:1;"
         offset="1"
         id="stop2" /></linearGradient><linearGradient
       id="linearGradient14"
       inkscape:collect="always"><stop
         style="stop-color:#87d7ef;stop-opacity:1;"
         offset="0.25256673"
         id="stop14" /><stop
         style="stop-color:#199fcc;stop-opacity:1;"
         offset="1"
         id="stop15" /></linearGradient><radialGradient
       inkscape:collect="always"
       xlink:href="#linearGradient14"
       id="radialGradient9-5"
       gradientUnits="userSpaceOnUse"
       gradientTransform="matrix(0.74342293,-0.0091444,0.01397297,1.1359762,544.10697,42.023124)"
       cx="327.77789"
       cy="125.1618"
       fx="327.77789"
       fy="125.1618"
       r="47.177906" /><radialGradient
       inkscape:collect="always"
       xlink:href="#linearGradient14"
       id="radialGradient10-7"
       gradientUnits="userSpaceOnUse"
       gradientTransform="matrix(0.74342293,-0.0091444,0.01397297,1.1359762,544.10697,42.023124)"
       cx="327.77789"
       cy="125.1618"
       fx="327.77789"
       fy="125.1618"
       r="47.177906" /><radialGradient
       inkscape:collect="always"
       xlink:href="#linearGradient14"
       id="radialGradient11-6"
       gradientUnits="userSpaceOnUse"
       gradientTransform="matrix(0.74342293,-0.0091444,0.01397297,1.1359762,544.10697,42.023124)"
       cx="327.77789"
       cy="125.1618"
       fx="327.77789"
       fy="125.1618"
       r="47.177906" /><radialGradient
       inkscape:collect="always"
       xlink:href="#linearGradient14"
       id="radialGradient12-9"
       gradientUnits="userSpaceOnUse"
       gradientTransform="matrix(0.74342293,-0.0091444,0.01397297,1.1359762,544.10697,42.023124)"
       cx="327.77789"
       cy="125.1618"
       fx="327.77789"
       fy="125.1618"
       r="47.177906" /><radialGradient
       inkscape:collect="always"
       xlink:href="#linearGradient14"
       id="radialGradient9-3"
       gradientUnits="userSpaceOnUse"
       gradientTransform="matrix(0.74342293,-0.0091444,0.01397297,1.1359762,544.10697,42.023124)"
       cx="327.77789"
       cy="125.1618"
       fx="327.77789"
       fy="125.1618"
       r="47.177906" /><radialGradient
       inkscape:collect="always"
       xlink:href="#linearGradient14"
       id="radialGradient10-3"
       gradientUnits="userSpaceOnUse"
       gradientTransform="matrix(0.74342293,-0.0091444,0.01397297,1.1359762,544.10697,42.023124)"
       cx="327.77789"
       cy="125.1618"
       fx="327.77789"
       fy="125.1618"
       r="47.177906" /><radialGradient
       inkscape:collect="always"
       xlink:href="#linearGradient14"
       id="radialGradient11-5"
       gradientUnits="userSpaceOnUse"
       gradientTransform="matrix(0.74342293,-0.0091444,0.01397297,1.1359762,544.10697,42.023124)"
       cx="327.77789"
       cy="125.1618"
       fx="327.77789"
       fy="125.1618"
       r="47.177906" /><radialGradient
       inkscape:collect="always"
       xlink:href="#linearGradient14"
       id="radialGradient12-2"
       gradientUnits="userSpaceOnUse"
       gradientTransform="matrix(0.74342293,-0.0091444,0.01397297,1.1359762,544.10697,42.023124)"
       cx="327.77789"
       cy="125.1618"
       fx="327.77789"
       fy="125.1618"
       r="47.177906" /><radialGradient
       inkscape:collect="always"
       xlink:href="#linearGradient2"
       id="radialGradient2"
       gradientUnits="userSpaceOnUse"
       gradientTransform="matrix(1.1285151,0.43934586,-0.42084797,1.2059855,457.60218,471.95877)"
       cx="197.16226"
       cy="-204.8331"
       fx="197.16226"
       fy="-204.8331"
       r="47.177906" /><filter
       inkscape:collect="always"
       style="color-interpolation-filters:sRGB"
       id="filter17-0"
       x="-0.22292799"
       y="-0.11330279"
       width="1.4457671"
       height="1.2266434"><feGaussianBlur
         inkscape:collect="always"
         stdDeviation="4.5531607"
         id="feGaussianBlur17-7" /></filter></defs><g
     inkscape:label="Layer 1"
     inkscape:groupmode="layer"
     id="layer1"
     transform="translate(-716.37995,-230.73537)"><path
       id="path1-4-7-7"
       style="font-variation-settings:normal;vector-effect:none;fill:none;fill-opacity:1;fill-rule:nonzero;stroke:#49c2e7;stroke-width:15;stroke-linecap:butt;stroke-linejoin:miter;stroke-miterlimit:4;stroke-dasharray:none;stroke-dashoffset:0;stroke-opacity:1;-inkscape-stroke:none;paint-order:stroke fill markers;filter:url(#filter17-0);stop-color:#000000"
       d="m 783.77167,249.16708 c -16.79595,-0.86316 -13.00829,25.82905 1.86768,22.12582 12.5391,-2.1431 11.53941,-22.02402 -1.86768,-22.12582 z m -9.25215,25.6775 c -4.52051,-0.25497 -6.68701,4.28508 -7.58234,8.00258 -5.00275,13.9994 -10.19988,27.93695 -15.0804,41.97526 -0.72566,4.3316 3.34851,7.14191 4.61476,10.99629 2.02741,3.91018 4.05482,7.82035 6.08223,11.73053 -8.65577,6.20674 -17.52082,12.1462 -26.04207,18.52474 -5.86197,5.74183 3.61066,14.87129 9.25891,9.1665 10.05008,-7.14366 20.25884,-14.1721 30.21198,-21.37995 3.90243,-5.06919 -1.37575,-10.23816 -3.28548,-14.94749 -1.30859,-2.55451 -4.0959,-6.14646 0.72035,-4.40383 2.84913,0.37791 6.42837,-0.0585 6.10154,3.86177 2.51915,9.92587 4.70602,19.95106 7.43548,29.81406 3.18314,7.52965 15.19566,2.16145 11.96266,-5.20604 -2.59355,-10.5946 -5.1871,-21.1892 -7.78065,-31.7838 1.73113,-6.28714 -5.03746,-8.74124 -10.01776,-8.72384 -4.67334,-0.61639 -9.34668,-1.23277 -14.02002,-1.84916 2.75453,-7.62538 5.50905,-15.25075 8.26358,-22.87613 2.51479,4.41822 3.84213,9.68175 7.40906,13.36051 5.74521,2.22729 12.22497,1.74582 18.30517,2.7265 5.15136,0.0412 11.94032,3.12836 15.33041,-2.37603 3.36291,-6.30899 -3.6399,-10.55676 -9.17126,-9.99658 -3.51429,-0.36601 -7.02859,-0.73201 -10.54288,-1.09802 5.74854,-3.75921 12.18198,-6.64991 17.42098,-11.05767 4.9866,-6.73279 -5.262,-13.87824 -10.60211,-8.15008 -5.15719,3.0977 -10.31438,6.19541 -15.47157,9.29311 -3.26783,-4.6513 -5.87127,-9.84208 -9.55647,-14.15461 -1.11548,-0.90684 -2.52948,-1.41281 -3.9641,-1.44862 z m 0.13591,98.28599 c -4.95212,0.24135 -2.71731,5.99662 -3.21273,9.22383 0.16919,9.29914 -0.33786,18.69357 0.25242,27.93336 5.04156,4.45962 7.19477,-2.36345 6.17252,-6.4531 0,-9.48315 0,-18.9663 0,-28.44945 -0.0704,-1.56943 -1.87917,-2.27031 -3.21221,-2.25464 z m -17.10438,4.61729 c -4.95164,0.24168 -2.71669,5.99677 -3.21221,9.22383 0.16581,4.99014 -0.33352,10.07399 0.25234,15.00495 5.04123,4.45957 7.195,-2.36345 6.17259,-6.4531 -0.16655,-5.45465 0.33449,-11.00339 -0.25242,-16.39879 -0.62586,-0.9819 -1.85515,-1.37161 -2.9603,-1.37689 z m 34.20824,2.77037 c -4.9517,0.24121 -2.71664,5.99641 -3.2122,9.22332 0.16269,4.06729 -0.32943,8.22684 0.25234,12.23509 5.04128,4.45963 7.19424,-2.36373 6.17206,-6.4531 -0.16422,-4.53167 0.33142,-9.1563 -0.25234,-13.62885 -0.6257,-0.98181 -1.85495,-1.3712 -2.95986,-1.37646 z" /><path
       id="path1-4-7"
       style="font-variation-settings:normal;vector-effect:none;fill:url(#radialGradient2);fill-opacity:1;fill-rule:nonzero;stroke:#bee9f6;stroke-width:4.865;stroke-linecap:butt;stroke-linejoin:miter;stroke-miterlimit:4;stroke-dasharray:none;stroke-dashoffset:0;stroke-opacity:1;-inkscape-stroke:none;paint-order:stroke fill markers;stop-color:#000000"
       d="m 783.7716,249.16708 c -15.42583,-1.03347 -14.09483,24.08895 0.51072,22.30782 13.46879,-0.6098 13.83997,-22.17925 -0.51072,-22.30782 z m -9.25215,25.6775 c -4.00851,-0.22586 -6.46171,3.50444 -7.21741,6.99232 -5.12414,14.33624 -10.44352,28.61034 -15.44533,42.98552 -0.83629,4.02458 2.93877,6.55691 4.13378,10.06865 2.18774,4.21939 4.37547,8.43878 6.56321,12.65817 -8.65474,6.20805 -17.52223,12.14441 -26.04207,18.52474 -5.79864,5.64403 3.42833,14.79351 9.11657,9.26685 10.09936,-7.17524 20.35119,-14.24161 30.35432,-21.4803 3.75358,-4.62586 -0.81825,-9.50035 -2.69768,-13.81391 -0.71909,-1.84009 -2.91402,-4.71562 -2.71752,-5.91334 2.72606,0.35957 5.45211,0.71915 8.17816,1.07872 2.77621,10.97909 5.2227,22.05673 8.20893,32.97304 3.11593,7.43455 15.05485,2.30183 12.00404,-5.03689 -2.60735,-10.65098 -5.21471,-21.30197 -7.82206,-31.95295 1.66061,-5.78185 -4.35498,-8.68563 -9.15444,-8.60998 -4.9611,-0.65434 -9.92221,-1.30868 -14.88331,-1.96302 2.75453,-7.62538 5.50905,-15.25075 8.26358,-22.87613 2.32139,4.24107 3.8202,9.02244 6.77186,12.85288 3.75411,2.66322 8.72875,1.78128 13.08025,2.62363 5.38286,0.4813 10.74844,1.28358 16.1429,1.54915 8.35518,-0.49269 7.00925,-13.71872 -1.08916,-12.99543 -4.52512,-0.47129 -9.05025,-0.94257 -13.57538,-1.41385 5.50443,-3.39851 11.1887,-6.52905 16.57236,-10.1075 6.46058,-5.62527 -3.06144,-15.32318 -9.05662,-9.51883 -5.38948,3.23723 -10.77896,6.47446 -16.16844,9.71169 -3.21113,-4.62587 -5.85902,-9.69971 -9.42002,-14.04092 -1.13371,-0.9761 -2.60766,-1.5261 -4.10052,-1.56231 z m 0.13591,98.28599 c -4.54765,0.002 -2.92321,5.01357 -3.21273,7.91768 0,9.45392 0,18.90784 0,28.36176 2.70308,5.37203 8.09307,0.21748 6.42494,-4.1529 0,-9.9573 0,-19.9146 0,-29.8719 -0.0704,-1.56943 -1.87917,-2.27031 -3.21221,-2.25464 z m -17.10438,4.61729 c -4.54726,0.003 -2.92256,5.01375 -3.21221,7.91768 0.15874,5.42652 -0.32364,10.94337 0.25234,16.3111 4.27802,4.15213 7.31213,-1.43158 6.17259,-5.40818 -0.15986,-5.8039 0.3252,-11.69869 -0.25242,-17.44371 -0.62586,-0.9819 -1.85515,-1.37161 -2.9603,-1.37689 z m 34.20821,2.77037 c -4.54731,0.002 -2.92253,5.01337 -3.2122,7.91717 0.15964,4.50311 -0.32503,9.09699 0.25234,13.54124 4.27811,4.15221 7.31141,-1.43184 6.17206,-5.40818 -0.16095,-4.88043 0.32678,-9.85226 -0.25234,-14.67377 -0.6257,-0.98181 -1.85495,-1.3712 -2.95986,-1.37646 z" /></g></svg>
