<?xml version="1.0" encoding="UTF-8" standalone="no"?>
<!-- Created with Inkscape (http://www.inkscape.org/) -->

<svg
   width="364.48071mm"
   height="420.44055mm"
   viewBox="0 0 364.48071 420.44055"
   version="1.1"
   id="svg1"
   inkscape:version="1.3.2 (091e20e, 2023-11-25, custom)"
   sodipodi:docname="box.svg"
   xmlns:inkscape="http://www.inkscape.org/namespaces/inkscape"
   xmlns:sodipodi="http://sodipodi.sourceforge.net/DTD/sodipodi-0.dtd"
   xmlns:xlink="http://www.w3.org/1999/xlink"
   xmlns="http://www.w3.org/2000/svg"
   xmlns:svg="http://www.w3.org/2000/svg">
  <sodipodi:namedview
     id="namedview1"
     pagecolor="#ffffff"
     bordercolor="#666666"
     borderopacity="1.0"
     inkscape:showpageshadow="2"
     inkscape:pageopacity="0.0"
     inkscape:pagecheckerboard="0"
     inkscape:deskcolor="#d1d1d1"
     inkscape:document-units="mm"
     inkscape:zoom="0.5162493"
     inkscape:cx="190.79929"
     inkscape:cy="833.89944"
     inkscape:window-width="3440"
     inkscape:window-height="1373"
     inkscape:window-x="-9"
     inkscape:window-y="-9"
     inkscape:window-maximized="1"
     inkscape:current-layer="layer1" />
  <defs
     id="defs1">
    <linearGradient
       inkscape:collect="always"
       xlink:href="#linearGradient399"
       id="linearGradient396"
       gradientUnits="userSpaceOnUse"
       x1="2625.9907"
       y1="-448.93188"
       x2="2706.6157"
       y2="-562.35376"
       gradientTransform="translate(-2585.8854,680.66516)" />
    <linearGradient
       id="linearGradient399"
       inkscape:collect="always">
      <stop
         style="stop-color:#b3b3b3;stop-opacity:1;"
         offset="0.60000002"
         id="stop398" />
      <stop
         style="stop-color:#666666;stop-opacity:1;"
         offset="1"
         id="stop399" />
    </linearGradient>
    <filter
       inkscape:collect="always"
       style="color-interpolation-filters:sRGB"
       id="filter385-7-1"
       x="-0.016392299"
       y="-0.0094641027"
       width="1.0327846"
       height="1.0189282">
      <feGaussianBlur
         inkscape:collect="always"
         stdDeviation="1.1238622"
         id="feGaussianBlur385-1-3" />
    </filter>
    <linearGradient
       inkscape:collect="always"
       xlink:href="#linearGradient401"
       id="linearGradient397"
       gradientUnits="userSpaceOnUse"
       x1="2741.1235"
       y1="-402.34677"
       x2="2656.1975"
       y2="-570.89874"
       gradientTransform="translate(-2585.8854,680.66516)" />
    <linearGradient
       id="linearGradient401"
       inkscape:collect="always">
      <stop
         style="stop-color:#999999;stop-opacity:1;"
         offset="0.60000002"
         id="stop400" />
      <stop
         style="stop-color:#4d4d4d;stop-opacity:1;"
         offset="1"
         id="stop401" />
    </linearGradient>
    <filter
       inkscape:collect="always"
       style="color-interpolation-filters:sRGB"
       id="filter385-1-6-3"
       x="-0.016392299"
       y="-0.0094641026"
       width="1.0327846"
       height="1.0189282">
      <feGaussianBlur
         inkscape:collect="always"
         stdDeviation="1.1238622"
         id="feGaussianBlur385-9-7-0" />
    </filter>
  </defs>
  <g
     inkscape:label="Layer 1"
     inkscape:groupmode="layer"
     id="layer1"
     transform="translate(44.1854,102.12917)">
    <path
       style="fill:#ca773f;fill-opacity:1;stroke:none;stroke-width:0.264583px;stroke-linecap:butt;stroke-linejoin:miter;stroke-opacity:1"
       d="m 138.0549,168.3114 -147.2243,-5 V 3.311403 l 147.2243,-85 z"
       id="path2-3-3-4-9-2-0"
       sodipodi:nodetypes="ccccc" />
    <path
       style="fill:#d59368;fill-opacity:1;stroke:none;stroke-width:0.264583px;stroke-linecap:butt;stroke-linejoin:miter;stroke-opacity:1"
       d="M 138.1879,158.31491 285.2792,153.3114 V 3.311403 l -147.2243,-85 z"
       id="path2-8-3-5-4-7-6-9"
       sodipodi:nodetypes="ccccc" />
    <path
       style="fill:url(#linearGradient396);fill-opacity:1;stroke:none;stroke-width:0.264583px;stroke-linecap:butt;stroke-linejoin:miter;stroke-opacity:1"
       d="m -18.285,198.09776 139.0194,80.21363 V 118.3114 L -17.8296,38.311403 Z"
       id="path2-8-52-7-3-9-1"
       sodipodi:nodetypes="ccccc" />
    <path
       style="opacity:0.5;fill:#828282;fill-opacity:1;stroke:none;stroke-width:0.264583px;stroke-linecap:butt;stroke-linejoin:miter;stroke-opacity:1;filter:url(#filter385-7-1)"
       d="m -35.1502,38.311403 153.494,88.442487 -0.2075,170.0575 11.2584,6.5 -0.3251,-189.898 -164.2198,-95.101987 z"
       id="path384-3-0"
       sodipodi:nodetypes="ccccccc" />
    <path
       id="path3-4-8-3-4-1"
       style="fill:#d59368;fill-opacity:1;stroke:none;stroke-width:0.264583px;stroke-linecap:butt;stroke-linejoin:miter;stroke-opacity:1"
       d="M -43.8104,3.311403 V 213.3114 l 181.8653,104.99999 -0.3171,-211.75933 z m 16.8652,29.5123 147.6796,85.487707 V 288.31139 L -26.4899,203.3114 Z"
       sodipodi:nodetypes="cccccccccc" />
    <path
       id="path3-3-6-6-5-7-8-5"
       style="fill:#e0b090;fill-opacity:1;stroke:none;stroke-width:0.264583px;stroke-linecap:butt;stroke-linejoin:miter;stroke-opacity:1"
       d="M 138.1879,-102.12917 319.9203,3.311403 138.0549,108.3114 -43.8104,3.311403 Z m -0.133,20.440573 -147.2243,85 147.2243,85.000002 147.2243,-85.000002 z"
       sodipodi:nodetypes="cccccccccc" />
    <path
       style="fill:#ca773f;fill-opacity:1;stroke:none;stroke-width:0.264583px;stroke-linecap:butt;stroke-linejoin:miter;stroke-opacity:1"
       d="m -26.9452,32.823703 9.1156,5.4877 V 198.3114 l 138.6972,80.00701 -0.1332,9.99299 -147.2243,-84.99999 z"
       id="path5-8-8-4-0-7"
       sodipodi:nodetypes="ccccccc" />
    <path
       style="font-variation-settings:normal;vector-effect:none;fill:url(#linearGradient397);fill-opacity:1;stroke:none;stroke-width:0.264583px;stroke-linecap:butt;stroke-linejoin:miter;stroke-miterlimit:4;stroke-dasharray:none;stroke-dashoffset:0;stroke-opacity:1;-inkscape-stroke:none;stop-color:#000000"
       d="m 293.9395,198.3114 -138.6973,80.00701 0.1332,-160.007 138.5641,-80.000007 z"
       id="path2-8-5-2-7-1-0-9"
       sodipodi:nodetypes="ccccc" />
    <path
       style="opacity:0.5;fill:#828282;fill-opacity:1;stroke:none;stroke-width:0.264583px;stroke-linecap:butt;stroke-linejoin:miter;stroke-opacity:1;filter:url(#filter385-1-6-3)"
       d="m 2239.4847,-685.32773 147.4318,84.94249 -0.2075,170.0575 17.3206,10 -0.3251,-189.898 -164.2198,-95.10199 z"
       id="path384-9-1-4"
       sodipodi:nodetypes="ccccccc"
       transform="matrix(-1,0,0,1,2550.9522,723.69664)" />
    <path
       id="path3-0-9-5-1-3-8"
       style="font-variation-settings:normal;vector-effect:none;fill:#ca773f;fill-opacity:1;stroke:none;stroke-width:0.264583px;stroke-linecap:butt;stroke-linejoin:miter;stroke-miterlimit:4;stroke-dasharray:none;stroke-dashoffset:0;stroke-opacity:1;-inkscape-stroke:none;stop-color:#000000"
       d="M 319.9203,3.311403 V 213.3114 L 138.0549,318.31139 V 108.3114 Z m -16.8652,29.5123 -147.6797,85.487707 V 288.31139 L 302.5997,203.3114 Z"
       sodipodi:nodetypes="cccccccccc" />
    <path
       style="font-variation-settings:normal;vector-effect:none;fill:#a75f2f;fill-opacity:1;stroke:none;stroke-width:0.264583px;stroke-linecap:butt;stroke-linejoin:miter;stroke-miterlimit:4;stroke-dasharray:none;stroke-dashoffset:0;stroke-opacity:1;-inkscape-stroke:none;stop-color:#000000"
       d="m 303.0551,32.823703 -9.1156,5.4877 V 198.3114 l -138.6973,80.00701 0.1332,9.99299 147.2243,-84.99999 z"
       id="path5-5-2-0-2-5-9"
       sodipodi:nodetypes="ccccccc" />
    <g
       id="g378-8-8-7-6-8"
       style="font-variation-settings:normal;vector-effect:none;fill:#b2b2b2;fill-opacity:1;stroke:none;stroke-width:0.264584;stroke-linecap:butt;stroke-linejoin:miter;stroke-miterlimit:4;stroke-dasharray:none;stroke-dashoffset:0;stroke-opacity:1;-inkscape-stroke:none;stop-color:#000000"
       transform="translate(-346.9193,418.31139)">
      <path
         id="path333-8-1-6-6-1"
         style="font-variation-settings:normal;vector-effect:none;fill:#b2b2b2;fill-opacity:1;stroke:none;stroke-width:0.264584;stroke-linecap:butt;stroke-linejoin:miter;stroke-miterlimit:4;stroke-dasharray:none;stroke-dashoffset:0;stroke-opacity:1;-inkscape-stroke:none;stop-color:#000000;stop-opacity:1"
         d="m 589.18208,-319.47797 c -5.20127,-0.0676 -11.2828,1.90822 -18.24488,5.9278 -4.77733,2.758 -9.1244,6.08032 -13.04106,9.96632 -3.91733,3.78999 -6.97472,7.27429 -9.17205,10.45362 -2.102,3.02866 -4.01262,6.2814 -5.73195,9.75806 -1.624,3.422 -2.62749,5.76907 -3.01015,7.0404 -0.382,1.176 -0.85966,2.69373 -1.43299,4.55373 -0.57333,1.76399 -0.8599,3.36239 -0.8599,4.79505 0,2.54733 1.76288,3.75319 5.28753,3.61942 l 4.35323,2.97966 c 0,3.24867 2.8663,4.31697 8.59896,3.20498 2.96133,-0.564 5.3496,-1.36995 7.16493,-2.41795 0.071,-0.041 0.14087,-0.0838 0.21084,-0.12609 -1.88416,3.39874 -2.8298,6.95954 -2.8298,10.68307 l -0.14263,1.22887 c 0,1.91066 0.0473,3.31613 0.14263,4.2168 0.19133,0.74933 0.6217,1.50446 1.29036,2.26446 0.21509,0.24468 0.48033,0.42525 0.79427,0.54363 l 8.84649,6.05493 c 0.45748,0.52043 1.13913,0.75531 2.0438,0.70435 -0.12141,0.0684 -0.24033,0.13337 -0.3638,0.20464 -4.20333,2.42733 -7.30801,4.55434 -9.31468,6.381 -1.91066,1.772 -3.24816,3.6431 -4.01216,5.6131 l 9.64076,6.59908 c 0.764,-1.97 2.10149,-3.8411 4.01216,-5.61309 2.00666,-1.82667 5.11186,-3.95368 9.31519,-6.38101 0.785,-0.45312 1.52813,-0.84806 2.22984,-1.18649 0.0144,0.42956 0.0238,0.87028 0.0238,1.3348 0,3.82133 -0.47766,6.96312 -1.43299,9.42578 -0.95533,2.36667 -2.43596,4.46376 -4.44262,6.29109 -1.91067,1.676 -4.92039,3.69998 -9.02839,6.07198 -0.78655,0.45417 -1.5371,0.85045 -2.25361,1.19063 v -1.33791 c 0,-2.19733 0.0473,-3.89691 0.14263,-5.09891 0.19133,-1.25667 0.66899,-2.82184 1.43298,-4.69584 l -9.64075,-6.59908 c -0.764,1.874 -1.24165,3.43917 -1.43299,4.69584 -0.0953,1.202 -0.14314,2.9021 -0.14314,5.09943 v 2.29185 c 0,3.91733 0.81239,6.21937 2.43706,6.90604 l 8.78293,6.01152 5.1e-4,5.1e-4 c 0.2551,0.25688 0.54091,0.4531 0.85783,0.58705 2.19733,0.73733 5.34983,-0.08 9.45782,-2.45205 4.108,-2.372 7.11721,-4.39598 9.02787,-6.07198 2.00667,-1.82733 3.48781,-3.92442 4.44314,-6.29109 0.95534,-2.46266 1.43299,-5.60445 1.43299,-9.42578 0,-5.34999 -0.95531,-8.3815 -2.86597,-9.0935 l -8.61291,-5.89473 c -0.305,-0.32633 -0.64741,-0.56188 -1.02837,-0.70383 -0.62455,-0.2968 -1.39386,-0.39435 -2.30115,-0.30179 0.56445,-0.30218 1.15088,-0.62653 1.76734,-0.98237 2.77066,-1.6 4.96784,-3.0601 6.59184,-4.3801 1.72,-1.47 2.91458,-2.87583 3.58325,-4.21783 0.764,-1.492 1.19384,-2.69545 1.28984,-3.61011 0.19067,-0.97067 0.28629,-2.26776 0.28629,-3.89176 l 2.29288,-2.04018 c 3.63066,-3.434 7.54738,-8.37062 11.7507,-14.80995 2.102,-3.22 3.86971,-6.96366 5.30304,-11.23032 1.52867,-4.41733 2.2934,-8.68022 2.2934,-12.78889 0,-8.59799 -3.20067,-14.29736 -9.602,-17.09869 l -4.60695,-3.1533 c -1.37003,-1.42754 -3.04784,-2.57647 -5.03432,-3.44578 -2.00041,-0.87521 -4.18267,-1.32835 -6.54689,-1.35909 z m 9.64076,6.59908 c 1.27982,0.0166 2.50512,0.16016 3.67833,0.42426 1.88497,2.95876 2.8298,6.76876 2.8298,11.43444 0,4.10867 -0.76422,8.37207 -2.29288,12.7894 -1.43334,4.26667 -3.20104,8.00981 -5.30304,11.22981 -4.20333,6.43933 -8.12056,11.37595 -11.75122,14.80995 l -2.29288,2.04018 c 0,1.624 -0.0951,2.92109 -0.28577,3.89176 -0.096,0.91466 -0.52637,2.11811 -1.29037,3.61011 -0.66866,1.342 -1.86272,2.74783 -3.58272,4.21783 -1.624,1.32 -3.82118,2.7801 -6.59185,4.3801 -0.63316,0.36548 -1.23555,0.69933 -1.81384,1.0082 0.10686,-3.88828 1.2488,-7.59829 3.42976,-11.12903 2.388,-3.76733 4.96737,-6.83338 7.73803,-9.19737 2.77067,-2.364 5.30259,-5.1151 7.59592,-8.25376 2.388,-3.19467 3.5817,-6.32091 3.5817,-9.37824 0,-3.15267 -0.90714,-5.06424 -2.7218,-5.73557 l -8.23051,-5.63377 c -0.38537,-0.43778 -0.85495,-0.75988 -1.41025,-0.96531 -1.72,-0.72733 -4.34754,-0.0704 -7.8822,1.97094 -3.53533,2.04066 -6.16288,4.13057 -7.88221,6.2699 -1.62467,1.98866 -2.62764,3.66699 -3.00964,5.03432 l -0.42994,1.96784 c -0.86,2.97999 -1.86312,5.46946 -3.00912,7.46879 -1.14667,1.904 -2.62781,3.38016 -4.44314,4.42815 -1.47696,0.85266 -3.33982,1.54254 -5.57537,2.07481 0.0932,-0.34631 0.19508,-0.69769 0.31212,-1.05781 0.57334,-1.86 1.05151,-3.37825 1.43351,-4.55425 0.382,-1.27133 1.38497,-3.61788 3.00963,-7.03988 1.71933,-3.47666 3.62996,-6.72939 5.73195,-9.75806 2.19733,-3.17933 5.25472,-6.66363 9.17205,-10.45362 3.91667,-3.886 8.26374,-7.20832 13.04107,-9.96632 6.96207,-4.01958 13.0436,-5.99544 18.24488,-5.9278 z m -16.24397,27.71458 c -0.46397,2.27696 -1.5724,4.59086 -3.33003,6.94222 -2.29333,3.13866 -4.82526,5.89027 -7.59592,8.25427 -0.80975,0.6909 -1.60263,1.44336 -2.3797,2.25413 0.45378,-1.15897 0.87898,-2.41553 1.27279,-3.78013 l 0.42995,-1.96836 c 0.382,-1.36733 1.38549,-3.04514 3.01015,-5.0338 1.71933,-2.13933 4.34636,-4.22924 7.88169,-6.2699 0.24159,-0.13953 0.47795,-0.27184 0.71107,-0.39843 z" />
    </g>
    <path
       d="m 223.0533,177.09907 0.1433,-1.2292 q 0,-6.16224 3.4394,-11.7307 3.5827,-5.65117 7.7386,-9.19706 4.156,-3.54589 7.5954,-8.25448 3.5827,-4.79132 3.5827,-9.37718 0,-4.72916 -2.7229,-5.73667 -2.5795,-1.09025 -7.8819,1.9711 -5.3024,3.06134 -7.882,6.27034 -2.4362,2.98295 -3.0094,5.0336 l -0.4299,1.96791 q -1.2898,4.47066 -3.0095,7.46984 -1.7197,2.85587 -4.4426,4.42791 -2.7228,1.57204 -7.1654,2.41725 -8.5984,1.66825 -8.5984,-3.20422 0,-2.14962 0.8598,-4.79567 0.8599,-2.78936 1.4331,-4.5534 0.5732,-1.90734 3.0095,-7.03991 2.5795,-5.21531 5.7323,-9.75842 3.2961,-4.76914 9.1717,-10.45439 5.8756,-5.82853 13.041,-9.96548 15.1907,-8.77033 24.7923,-4.56889 9.6016,4.20142 9.6016,17.0992 0,6.16223 -2.2929,12.78849 -2.1496,6.40017 -5.3024,11.2299 -6.3056,9.65945 -11.7513,14.8098 l -2.2929,2.04036 q 0,2.43624 -0.2866,3.89148 -0.1433,1.37251 -1.2898,3.61081 -1.0032,2.01225 -3.5827,4.21809 -2.4362,1.97979 -6.5922,4.37922 -4.1559,2.39943 -6.7355,3.17219 -2.4362,0.69002 -3.4393,-0.4505 -1.0032,-1.14052 -1.2898,-2.26482 -0.1433,-1.35034 -0.1433,-4.2165 z m -0.5732,25.9831 q 1.1465,-2.95483 4.0126,-5.61277 3.0095,-2.74067 9.315,-6.38118 6.3056,-3.64051 9.0284,-2.3464 2.8662,1.06807 2.8662,9.09332 0,5.73232 -1.4331,9.42588 -1.4331,3.55024 -4.4425,6.29089 -2.8662,2.51464 -9.0284,6.0724 -6.1623,3.55777 -9.4584,2.4513 -2.4362,-1.02967 -2.4362,-6.9053 l -4e-4,-2.29224 q 0,-3.29608 0.1433,-5.09852 0.2866,-1.88516 1.4331,-4.6967 z"
       id="text7-8-5-6-5-3-1"
       style="font-size:143.308px;line-height:1.25;font-family:'Fredoka One';-inkscape-font-specification:'Fredoka One, Normal';text-align:end;letter-spacing:0px;word-spacing:0px;text-anchor:end;fill:#f9f9f9;stroke:none;stroke-width:0.264584"
       aria-label="?" />
    <g
       id="g332-0-9-4-4-3"
       style="font-variation-settings:normal;vector-effect:none;fill:#999999;fill-opacity:1;stroke:none;stroke-width:0.264583px;stroke-linecap:butt;stroke-linejoin:miter;stroke-miterlimit:4;stroke-dasharray:none;stroke-dashoffset:0;stroke-opacity:1;-inkscape-stroke:none;stop-color:#000000"
       transform="translate(-346.9193,418.31139)">
      <path
         id="path287-1-0-8-1-6"
         style="font-variation-settings:normal;vector-effect:none;fill:#999999;fill-opacity:1;stroke:none;stroke-width:0.264583px;stroke-linecap:butt;stroke-linejoin:miter;stroke-miterlimit:4;stroke-dasharray:none;stroke-dashoffset:0;stroke-opacity:1;-inkscape-stroke:none;stop-color:#000000;stop-opacity:1"
         d="m 378.73601,-318.75192 c -1.29055,0.0177 -2.41675,0.16716 -3.37808,0.44803 -1.1427,0.32726 -2.22912,0.7873 -3.25872,1.37718 l -7.91941,3.34657 c -2.102,0.602 -4.01262,1.64904 -5.73195,3.14037 -1.62467,1.546 -2.62764,2.73398 -3.00964,3.56464 -0.382,0.73467 -0.85965,1.70069 -1.43299,2.89802 -0.57333,1.102 -0.86041,2.36953 -0.86041,3.80287 0,3.24799 2.8663,7.62572 8.59896,13.13305 2.96133,2.85599 5.35012,4.80797 7.16545,5.85597 1.81534,1.04866 3.29596,1.28295 4.44263,0.70228 l 10.86135,-4.59042 0.002,-5.1e-4 c 0.10741,-0.0387 0.21312,-0.0817 0.31523,-0.13333 0.30707,-0.18095 0.60333,-0.41054 0.88986,-0.68574 0.70822,0.34989 1.46087,0.75319 2.2624,1.21594 3.53533,2.04133 6.16236,4.41817 7.88169,7.13083 1.81533,2.76733 2.72283,5.72742 2.72283,8.88008 -2.77067,-0.83533 -5.34952,-0.748 -7.73751,0.262 l -11.17813,4.72426 c -2.29333,1.06467 -3.4401,3.6507 -3.4401,7.7587 l -0.14315,1.06402 c 0,1.91066 0.0478,3.37149 0.14315,4.38216 0.19133,0.97 0.62118,2.22111 1.28984,3.75377 0.66867,1.53267 1.81507,3.00663 3.43907,4.42196 1.72,1.47066 3.96536,3.00607 6.73602,4.6054 2.77066,1.6 4.96785,2.67755 6.59185,3.23288 1.71933,0.51533 2.91391,0.4882 3.58324,-0.0811 l 10.20816,-4.31395 h 5.2e-4 c 0.39622,-0.0613 0.71957,-0.1975 0.96945,-0.4098 0.1707,-0.13629 0.32364,-0.27774 0.46095,-0.42374 1.29727,-0.26751 2.62369,-0.65559 3.98064,-1.16737 0.16941,-0.0639 0.33671,-0.13612 0.50178,-0.21188 l 10.67635,-4.51342 c 2.102,-0.79266 3.8697,-2.49466 5.30303,-5.10666 1.52867,-2.65267 2.29289,-6.03299 2.29289,-10.14098 0,-8.59866 -3.20067,-17.99389 -9.602,-28.18588 -6.40133,-10.19266 -14.66511,-18.21234 -24.79177,-24.059 -4.77733,-2.758 -9.1244,-4.45589 -13.04106,-5.09323 -2.2035,-0.41212 -4.13469,-0.60677 -5.79397,-0.58394 z m -10.26294,4.73459 c 1.44339,0.0451 3.06779,0.23511 4.87878,0.57413 3.91666,0.63733 8.26373,2.33523 13.04106,5.09323 10.12666,5.84666 18.39096,13.86597 24.79229,24.05796 6.40132,10.19266 9.60199,19.58825 9.60199,28.18691 0,4.108 -0.76473,7.48795 -2.2934,10.13995 -0.39795,0.72519 -0.82226,1.37767 -1.27175,1.96267 -1.58245,0.0824 -3.1174,-0.0279 -4.60386,-0.33848 l -2.2934,-0.6072 -9.25214,3.91036 c -0.7752,-0.40769 -1.60378,-0.86378 -2.49856,-1.38028 -2.77066,-1.6 -5.01603,-3.13489 -6.73602,-4.60489 -1.624,-1.41533 -2.7704,-2.88928 -3.43907,-4.42195 -0.66867,-1.53266 -1.09851,-2.78429 -1.28984,-3.75429 -0.0953,-1.01067 -0.14315,-2.47098 -0.14315,-4.38165 l 0.14315,-1.06401 c 0,-1.2015 0.10096,-2.26898 0.29714,-3.21014 2.65453,0.75933 5.08788,0.90362 7.29878,0.42994 0.75291,-0.13767 1.38668,-0.40588 1.9022,-0.80408 l 9.27592,-3.92069 c 2.388,-0.436 3.5817,-2.18266 3.5817,-5.23999 0,-3.15267 -0.9075,-6.11312 -2.72283,-8.88111 -1.71934,-2.71267 -4.34688,-5.08965 -7.88221,-7.13032 -3.53466,-2.04066 -6.16169,-2.98417 -7.88169,-2.83083 -1.39027,0.097 -2.32443,0.49286 -2.80448,1.18545 l -8.37365,3.53984 c -0.63424,0.044 -1.17266,0.15079 -1.61747,0.31884 -1.48824,-1.10744 -3.23754,-2.6264 -5.26066,-4.57801 -5.73266,-5.50666 -8.59896,-9.88402 -8.59896,-13.13202 0,-1.43333 0.28656,-2.70087 0.8599,-3.80286 0.57333,-1.198 1.05098,-2.16439 1.43298,-2.89905 0.28123,-0.61105 0.9025,-1.41794 1.85725,-2.41743 z m 20.30884,78.59314 c -1.06723,0.0285 -1.86375,0.41673 -2.389,1.16427 l -0.002,5.2e-4 -8.43566,3.56464 c -1.24492,-0.0538 -2.15905,0.33112 -2.7404,1.15807 l -0.002,5.1e-4 c -0.764,0.992 -1.24166,2.00619 -1.43299,3.04219 -0.0953,1.09134 -0.14263,2.7357 -0.14263,4.93304 v 2.29288 c 0,3.91733 0.81203,7.15731 2.43603,9.7193 2.198,3.27467 5.35086,6.09777 9.45886,8.46977 4.10799,2.372 7.1172,3.82286 9.02787,4.35219 2.00666,0.49 3.48781,0.10283 4.44314,-1.16117 l 7.9747,-3.37034 c 1.38817,0.0828 2.45703,-0.36688 3.20343,-1.35392 0.95533,-1.35933 1.43298,-3.94926 1.43298,-7.77058 0,-5.35 -0.95531,-9.48472 -2.86597,-12.40338 -1.81533,-2.95867 -4.82543,-5.65125 -9.02942,-8.07858 -4.20333,-2.42666 -7.30802,-3.88544 -9.31468,-4.37544 -0.59708,-0.13563 -1.13805,-0.19691 -1.62316,-0.18397 z m -3.95014,7.2502 c 1.12677,0.58111 2.35529,1.25146 3.71036,2.03399 4.204,2.42666 7.21358,5.11939 9.02891,8.07806 1.91066,2.91866 2.86598,7.05286 2.86598,12.40286 0,0.66662 -0.0154,1.29347 -0.0445,1.88515 -1.11259,-0.58053 -2.33158,-1.25043 -3.68143,-2.02985 -4.10799,-2.37133 -7.26137,-5.19495 -9.45937,-8.47028 -1.624,-2.562 -2.43602,-5.80109 -2.43602,-9.71775 v -2.2934 c 0,-0.69097 0.007,-1.30718 0.016,-1.88878 z" />
    </g>
    <path
       d="m 28.8686,163.45438 0.1433,-1.06371 q 0,-6.16226 3.4394,-7.75922 3.5827,-1.51423 7.7386,-0.26126 4.1559,1.25296 7.5953,0.51585 3.5827,-0.65438 3.5827,-5.24024 0,-4.72916 -2.7228,-8.88074 -2.5796,-4.06885 -7.882,-7.13019 -5.3024,-3.06134 -7.8819,-2.83094 -2.4362,0.16982 -3.0095,1.55857 l -0.4299,1.47148 q -1.2898,2.98136 -3.0095,3.9948 -1.7197,0.87013 -4.4425,-0.7019 -2.7229,-1.57204 -7.1654,-5.85664 -8.5985,-8.26042 -8.5985,-13.1329 0,-2.14962 0.8598,-3.80281 0.8599,-1.7965 1.4331,-2.89862 0.5733,-1.24543 3.0095,-3.56487 2.5795,-2.23671 5.7323,-3.1393 3.2961,-0.96317 9.1717,0.13619 5.8757,0.95606 13.041,5.093 15.1907,8.77033 24.7923,24.0588 9.6017,15.2884 9.6017,28.18619 0,6.16224 -2.293,10.14081 -2.1496,3.91801 -5.3024,5.10722 -6.3055,2.37842 -11.7513,1.24065 l -2.2929,-0.60728 q 0,2.43624 -0.2866,3.56054 -0.1433,1.20703 -1.2898,2.12151 -1.0031,0.85391 -3.5827,0.0811 -2.4362,-0.83334 -6.5921,-3.23277 -4.156,-2.39943 -6.7355,-4.60527 -2.4363,-2.12309 -3.4394,-4.42196 -1.0032,-2.29887 -1.2898,-3.75412 -0.1433,-1.51582 -0.1433,-4.38198 z m -0.5733,25.3212 q 1.1465,-1.63102 4.0127,-0.97939 3.0094,0.73437 9.315,4.37487 6.3055,3.64051 9.0284,8.07871 2.8661,4.37763 2.8661,12.4029 0,5.73232 -1.433,7.77109 -1.4331,1.89546 -4.4426,1.1611 -2.8661,-0.79493 -9.0284,-4.3527 -6.1622,-3.55777 -9.4583,-8.47023 -2.4363,-3.8428 -2.4363,-9.71843 l -3e-4,-2.29312 q 0,-3.29609 0.1433,-4.93304 0.2866,-1.55423 1.433,-3.04193 z"
       id="text7-9-0-4-4-5-8-8"
       style="-inkscape-font-specification:'Fredoka One, Normal';fill:#f9f9f9;stroke:none;stroke-width:0.264584"
       aria-label="?" />
    <path
       style="fill:none;stroke:#f9f9f9;stroke-width:1.5;stroke-linecap:butt;stroke-linejoin:miter;stroke-dasharray:none;stroke-opacity:1"
       d="M -43.8104,3.311413 138.0549,108.31141"
       id="path383-69-0-2" />
    <path
       style="opacity:0.5;fill:none;stroke:#f9f9f9;stroke-width:1.5;stroke-linecap:butt;stroke-linejoin:miter;stroke-dasharray:none;stroke-opacity:1"
       d="M 319.9203,3.311403 138.0549,108.31141"
       id="path383-1-23-1-4"
       sodipodi:nodetypes="cc" />
    <path
       style="opacity:0.5;fill:none;stroke:#f9f9f9;stroke-width:1.5;stroke-linecap:butt;stroke-linejoin:miter;stroke-dasharray:none;stroke-opacity:1"
       d="M 302.5997,203.3114 155.3754,288.31139"
       id="path383-1-25-35-4-6"
       sodipodi:nodetypes="cc" />
    <path
       style="opacity:0.5;fill:none;stroke:#f9f9f9;stroke-width:1.5;stroke-linecap:butt;stroke-linejoin:miter;stroke-dasharray:none;stroke-opacity:1"
       d="M -26.9452,32.823703 -26.4899,203.3114"
       id="path383-1-25-4-6-8-4"
       sodipodi:nodetypes="cc" />
    <path
       style="opacity:0.5;fill:none;stroke:#f9f9f9;stroke-width:1.5;stroke-linecap:butt;stroke-linejoin:miter;stroke-dasharray:none;stroke-opacity:1"
       d="M 138.0549,108.3114 V 318.31139"
       id="path383-1-25-4-6-9-3-3"
       sodipodi:nodetypes="cc" />
    <path
       style="opacity:0.5;fill:none;stroke:#f9f9f9;stroke-width:1.5;stroke-linecap:butt;stroke-linejoin:miter;stroke-dasharray:none;stroke-opacity:1"
       d="M 303.0551,32.823703 302.5997,203.3114"
       id="path383-1-25-3-4-9-5"
       sodipodi:nodetypes="cc" />
    <path
       style="fill:none;stroke:#f9f9f9;stroke-width:1.5;stroke-linecap:butt;stroke-linejoin:miter;stroke-dasharray:none;stroke-opacity:1"
       d="m 138.0549,-81.688597 147.2243,85"
       id="path383-0-7-5-2"
       sodipodi:nodetypes="cc" />
    <path
       style="fill:none;stroke:#f9f9f9;stroke-width:1.5;stroke-linecap:butt;stroke-linejoin:miter;stroke-dasharray:none;stroke-opacity:1"
       d="m -26.4899,203.3114 147.2243,84.99999"
       id="path383-6-0-3-0"
       sodipodi:nodetypes="cc" />
    <path
       style="opacity:0.5;fill:none;stroke:#f9f9f9;stroke-width:1.5;stroke-linecap:butt;stroke-linejoin:miter;stroke-dasharray:none;stroke-opacity:1"
       d="m 138.0549,-81.688597 -147.2243,85"
       id="path383-1-2-2-4-7"
       sodipodi:nodetypes="cc" />
  </g>
</svg>
