<?xml version="1.0" encoding="UTF-8" standalone="no"?>
<!-- Generator: Adobe Illustrator 25.3.0, SVG Export Plug-In . SVG Version: 6.00 Build 0)  -->

<svg
   version="1.1"
   id="Calque_1"
   x="0px"
   y="0px"
   viewBox="0 0 22.069748 16"
   xml:space="preserve"
   sodipodi:docname="discord.svg"
   width="22.069748"
   height="16"
   inkscape:version="1.2.2 (732a01da63, 2022-12-09)"
   xmlns:inkscape="http://www.inkscape.org/namespaces/inkscape"
   xmlns:sodipodi="http://sodipodi.sourceforge.net/DTD/sodipodi-0.dtd"
   xmlns="http://www.w3.org/2000/svg"
   xmlns:svg="http://www.w3.org/2000/svg"><defs
   id="defs11" /><sodipodi:namedview
   id="namedview9"
   pagecolor="#ffffff"
   bordercolor="#666666"
   borderopacity="1.0"
   inkscape:showpageshadow="2"
   inkscape:pageopacity="0.0"
   inkscape:pagecheckerboard="0"
   inkscape:deskcolor="#d1d1d1"
   showgrid="false"
   inkscape:zoom="25.675"
   inkscape:cx="6.2512171"
   inkscape:cy="8.0038948"
   inkscape:window-width="3440"
   inkscape:window-height="1373"
   inkscape:window-x="-9"
   inkscape:window-y="-9"
   inkscape:window-maximized="1"
   inkscape:current-layer="Calque_1" />
<style
   type="text/css"
   id="style2">
	.st0{fill:#5865F2;}
</style>
<g
   id="Responsive"
   transform="translate(-8.9360848,-12)">
	<g
   id="Galaxy-S10_x2B_-Copy-12"
   transform="translate(-109,-645)">
		<g
   id="Discord-Logo-Color"
   transform="translate(131,667)">
			<path
   id="Shape"
   class="st0"
   d="m 5.6,-8.7 c -1.4,-0.6 -2.9,-1 -4.5,-1.3 0,0 -0.1,0 -0.1,0 -0.1,0.4 -0.3,0.8 -0.5,1.1 -1.7,-0.2 -3.4,-0.2 -5,0 -0.2,-0.3 -0.4,-0.7 -0.6,-1.1 0,0 0,0 -0.1,0 -1.6,0.3 -3.1,0.7 -4.5,1.3 0,0 0,0 0,0 -2.9,4.1 -3.6,8 -3.3,11.9 0,0 0,0 0,0 2,1.5 3.8,2.3 5.6,2.8 0,0 0.1,0 0.1,0 0.4,-0.6 0.8,-1.1 1.1,-1.7 0,0 0,-0.1 0,-0.1 C -6.8,4 -7.4,3.7 -7.9,3.4 c 0,0 0,-0.1 0,-0.1 0.1,-0.1 0.2,-0.2 0.3,-0.3 0,0 0,0 0.1,0 3.6,1.5 7.5,1.5 11,0 0,0 0.1,0 0.1,0 0.1,0.1 0.2,0.2 0.3,0.3 0,0 0,0.1 0,0.1 -0.5,0.3 -1.1,0.5 -1.7,0.7 0,0 -0.1,0.1 0,0.1 0.3,0.6 0.7,1.2 1.1,1.8 0,0 0,0 0.1,0 C 5.2,5.5 7,4.7 8.9,3.3 c 0,0 0,0 0,0 0.5,-4.5 -0.8,-8.5 -3.3,-12 0,0 0,0 0,0 z M -5.6,0.9 c -1.1,0 -2,-0.9 -2,-2.1 0,-1.2 0.9,-2.1 2,-2.1 1.1,0 2,1 2,2.1 -0.1,1.2 -0.9,2.1 -2,2.1 z m 7.3,0 c -1.1,0 -2,-0.9 -2,-2.1 0,-1.2 0.9,-2.1 2,-2.1 1.1,0 2,1 2,2.1 C 3.6,0 2.8,0.9 1.7,0.9 Z" />
		</g>
	</g>
</g>
</svg>
