<?xml version="1.0" encoding="UTF-8" standalone="no"?>
<!-- Created with Inkscape (http://www.inkscape.org/) -->

<svg
   width="208.597mm"
   height="208.597mm"
   viewBox="0 0 208.59698 208.59703"
   version="1.1"
   id="svg966"
   xml:space="preserve"
   inkscape:version="1.3.2 (091e20e, 2023-11-25, custom)"
   sodipodi:docname="icon-coin.svg"
   inkscape:export-filename="icon-coin.png"
   inkscape:export-xdpi="31.172068"
   inkscape:export-ydpi="31.172068"
   xmlns:inkscape="http://www.inkscape.org/namespaces/inkscape"
   xmlns:sodipodi="http://sodipodi.sourceforge.net/DTD/sodipodi-0.dtd"
   xmlns:xlink="http://www.w3.org/1999/xlink"
   xmlns="http://www.w3.org/2000/svg"
   xmlns:svg="http://www.w3.org/2000/svg"><sodipodi:namedview
     id="namedview968"
     pagecolor="#ffffff"
     bordercolor="#666666"
     borderopacity="1.0"
     inkscape:showpageshadow="2"
     inkscape:pageopacity="0.0"
     inkscape:pagecheckerboard="true"
     inkscape:deskcolor="#d1d1d1"
     inkscape:document-units="mm"
     showgrid="false"
     inkscape:zoom="0.271719"
     inkscape:cx="842.78242"
     inkscape:cy="108.56804"
     inkscape:window-width="1718"
     inkscape:window-height="1363"
     inkscape:window-x="1712"
     inkscape:window-y="0"
     inkscape:window-maximized="0"
     inkscape:current-layer="g3092" /><defs
     id="defs963"><linearGradient
       inkscape:collect="always"
       id="linearGradient1909"><stop
         style="stop-color:#e4ab00;stop-opacity:1"
         offset="0"
         id="stop1905" /><stop
         style="stop-color:#ffe431;stop-opacity:1"
         offset="1"
         id="stop1907" /></linearGradient><linearGradient
       id="linearGradient1897"
       inkscape:collect="always"><stop
         id="stop1893"
         offset="0"
         style="stop-color:#f4ab00;stop-opacity:1" /><stop
         id="stop1895"
         offset="1"
         style="stop-color:#fdf995;stop-opacity:1" /></linearGradient><clipPath
       clipPathUnits="userSpaceOnUse"
       id="clipPath2278-3-0"><path
         id="path2280-0-9"
         d="M 49.276684,46.317724 -7.7983858,145.17474 49.276684,244.03175 H 163.42683 L 220.5019,145.17474 163.42683,46.317724 Z m 13.164571,22.80171 h 87.820995 l 43.9105,76.055306 -43.9105,76.0553 H 62.441255 l -43.910499,-76.0553 z"
         style="opacity:1;vector-effect:none;fill:#000000;fill-opacity:1;stroke:none;stroke-width:0.265;stroke-linecap:round;stroke-linejoin:round;stroke-miterlimit:4;stroke-dasharray:none;stroke-dashoffset:0;stroke-opacity:1;paint-order:normal"
         inkscape:connector-curvature="0" /></clipPath><linearGradient
       inkscape:collect="always"
       xlink:href="#linearGradient1903"
       id="linearGradient3094"
       gradientUnits="userSpaceOnUse"
       gradientTransform="translate(159.41079,-73.501645)"
       x1="127.25416"
       y1="181.34081"
       x2="81.21608"
       y2="101.60052" /><linearGradient
       id="linearGradient1903"
       inkscape:collect="always"><stop
         id="stop1899"
         offset="0"
         style="stop-color:#fcd200;stop-opacity:1" /><stop
         id="stop1901"
         offset="1"
         style="stop-color:#fcf98a;stop-opacity:1" /></linearGradient><clipPath
       clipPathUnits="userSpaceOnUse"
       id="clipPath2507-9"><path
         style="opacity:1;vector-effect:none;fill:#000000;fill-opacity:1;stroke:none;stroke-width:0.265;stroke-linecap:round;stroke-linejoin:round;stroke-miterlimit:4;stroke-dasharray:none;stroke-dashoffset:0;stroke-opacity:1;paint-order:normal"
         d="M 49.276694,46.317699 -7.7983733,145.17472 49.276694,244.03173 h 0.179835 l 4.582665,7.9375 H 168.18934 l 57.07507,-98.85701 -57.07507,-98.857021 h -0.17984 l -4.58266,-7.9375 z"
         id="path2509-4"
         inkscape:connector-curvature="0" /></clipPath><linearGradient
       inkscape:collect="always"
       xlink:href="#linearGradient1903"
       id="linearGradient6"
       gradientUnits="userSpaceOnUse"
       gradientTransform="translate(159.41079,-73.501645)"
       x1="127.25416"
       y1="181.34081"
       x2="81.21608"
       y2="101.60052" /><filter
       inkscape:collect="always"
       style="color-interpolation-filters:sRGB"
       id="filter1932-0-3"
       x="-0.024"
       width="1.048"
       y="-0.024"
       height="1.048"><feGaussianBlur
         inkscape:collect="always"
         stdDeviation="1.8330574"
         id="feGaussianBlur1934-0-7" /></filter><linearGradient
       inkscape:collect="always"
       xlink:href="#linearGradient1909"
       id="linearGradient1911-2-3"
       x1="138.63391"
       y1="200.60548"
       x2="72.062866"
       y2="84.850273"
       gradientUnits="userSpaceOnUse"
       gradientTransform="matrix(3.7795276,0,0,3.7795276,-44.713734,-801.15705)" /><linearGradient
       inkscape:collect="always"
       xlink:href="#linearGradient1897"
       id="linearGradient2729"
       gradientUnits="userSpaceOnUse"
       gradientTransform="matrix(3.7735783,0.21197957,-0.21197957,3.7735783,0.29033955,-802.40378)"
       x1="149.83485"
       y1="231.23053"
       x2="60.289028"
       y2="58.424534" /><clipPath
       clipPathUnits="userSpaceOnUse"
       id="clipPath1786-7-8"><path
         style="opacity:1;vector-effect:none;fill:#000000;fill-opacity:1;stroke:none;stroke-width:0.265;stroke-linecap:round;stroke-linejoin:round;stroke-miterlimit:4;stroke-dasharray:none;stroke-dashoffset:0;stroke-opacity:1;paint-order:normal"
         d="m 104.23498,51.934298 a 91.652871,91.652871 0 0 0 -91.652802,91.652802 91.652871,91.652871 0 0 0 22.573298,60.14 91.652871,91.652871 0 0 0 73.312834,36.80447 91.652871,91.652871 0 0 0 91.65281,-91.6528 91.652871,91.652871 0 0 0 -22.30614,-59.758113 91.652871,91.652871 0 0 0 -73.58,-37.186359 z"
         id="path1788-2-6"
         inkscape:connector-curvature="0" /></clipPath><filter
       inkscape:collect="always"
       style="color-interpolation-filters:sRGB"
       id="filter1228-57-4"
       x="-0.6"
       width="2.2"
       y="-0.6"
       height="2.2"><feGaussianBlur
         inkscape:collect="always"
         stdDeviation="15.49328"
         id="feGaussianBlur1230-06-9" /></filter><filter
       inkscape:collect="always"
       style="color-interpolation-filters:sRGB"
       id="filter1228-1-2-0"
       x="-0.6"
       width="2.2"
       y="-0.6"
       height="2.2"><feGaussianBlur
         inkscape:collect="always"
         stdDeviation="15.49328"
         id="feGaussianBlur1230-9-6-4" /></filter><filter
       inkscape:collect="always"
       style="color-interpolation-filters:sRGB"
       id="filter1228-57-4-4"
       x="-0.6"
       width="2.2"
       y="-0.6"
       height="2.2"><feGaussianBlur
         inkscape:collect="always"
         stdDeviation="15.49328"
         id="feGaussianBlur1230-06-9-8" /></filter></defs><g
     inkscape:label="Layer 1"
     inkscape:groupmode="layer"
     id="layer1"
     transform="translate(12.82742,60.16816)"><g
       id="path3"
       inkscape:transform-center-x="0.036513433"
       inkscape:transform-center-y="-2.9693976"
       transform="matrix(0.26416686,-0.01483949,0.01483949,0.26416686,-3.4797214,109.9764)"><circle
         r="91.65287"
         cy="154.37305"
         cx="110.79427"
         id="path815-4-1-0-0-0"
         style="vector-effect:none;fill:#4d4d4d;fill-opacity:1;stroke:none;stroke-width:0.265;stroke-linecap:round;stroke-linejoin:round;stroke-miterlimit:4;stroke-dasharray:none;stroke-dashoffset:0;stroke-opacity:1;paint-order:normal;filter:url(#filter1932-0-3)"
         transform="matrix(3.7735783,0.21197957,-0.21197957,3.7735783,0.29055255,-802.4038)" /><circle
         r="346.40454"
         cy="-238.46518"
         cx="365.24576"
         id="path815-4-1-51-3"
         style="vector-effect:none;fill:#b87c00;fill-opacity:1;stroke:none;stroke-width:1.00157;stroke-linecap:round;stroke-linejoin:round;stroke-miterlimit:4;stroke-dasharray:none;stroke-dashoffset:0;stroke-opacity:1;paint-order:normal"
         transform="rotate(3.2151932)" /><circle
         r="258.57144"
         cy="-258.46494"
         cx="349.24576"
         id="path815-1-0"
         style="vector-effect:none;fill:#b87c00;fill-opacity:1;stroke:none;stroke-width:1.00157;stroke-linecap:round;stroke-linejoin:round;stroke-miterlimit:4;stroke-dasharray:none;stroke-dashoffset:0;stroke-opacity:1;paint-order:normal"
         transform="rotate(3.2151932)" /><circle
         r="258.57144"
         cy="-235.1506"
         cx="358.14087"
         id="path815-0-0-6"
         style="vector-effect:none;fill:url(#linearGradient1911-2-3);fill-opacity:1;stroke:none;stroke-width:1.00157;stroke-linecap:round;stroke-linejoin:round;stroke-miterlimit:4;stroke-dasharray:none;stroke-dashoffset:0;stroke-opacity:1;paint-order:normal"
         transform="rotate(3.2151932)" /><g
         id="g3092"
         transform="matrix(2.4447755,0.13733449,-0.13733449,2.4447755,176.47508,-687.05842)"
         style="stroke-width:1.54353"><path
           style="font-variation-settings:normal;opacity:1;vector-effect:none;fill:#b87c00;fill-opacity:1;stroke:none;stroke-width:0.409035;stroke-linecap:round;stroke-linejoin:round;stroke-miterlimit:4;stroke-dasharray:none;stroke-dashoffset:0;stroke-opacity:1;-inkscape-stroke:none;paint-order:normal;stop-color:#000000;stop-opacity:1"
           d="m 68.445275,145.62336 c 10.685215,50.13484 -6.051703,83.28866 -27.990395,109.50629 41.953411,-2.98804 76.3702,-32.77291 106.55992,-77.58741 z m 1.594163,10.09637 c 12.256216,51.70585 -17.373974,78.34305 -41.275098,102.59825 41.953411,-2.98804 82.21547,-31.44444 112.40519,-76.25894 z"
           id="path6-3"
           sodipodi:nodetypes="cccccccc" /><path
           style="font-variation-settings:normal;vector-effect:none;fill:#ffffff;fill-opacity:1;stroke:none;stroke-width:0.409035;stroke-linecap:round;stroke-linejoin:round;stroke-miterlimit:4;stroke-dasharray:none;stroke-dashoffset:0;stroke-opacity:1;-inkscape-stroke:none;paint-order:normal;stop-color:#000000"
           d="m 64.36136,139.9059 c 10.685215,50.13484 -6.051703,83.28866 -27.990395,109.50629 41.953411,-2.98804 76.370215,-32.77291 106.559935,-77.58741 z m 1.594163,10.09637 c 12.256216,51.70585 -17.373974,78.34305 -41.275098,102.59825 41.953411,-2.98804 82.215485,-31.44444 112.405205,-76.25894 z"
           id="path6-65"
           sodipodi:nodetypes="cccccccc" /><path
           style="font-variation-settings:normal;opacity:1;vector-effect:none;fill:url(#linearGradient6);fill-opacity:1;stroke:none;stroke-width:0.409035;stroke-linecap:round;stroke-linejoin:round;stroke-miterlimit:4;stroke-dasharray:none;stroke-dashoffset:0;stroke-opacity:1;-inkscape-stroke:none;paint-order:normal;stop-color:#000000;stop-opacity:1"
           d="m 65.178143,140.72268 c 10.685215,50.13484 -6.051703,83.28866 -27.990395,109.50629 41.953411,-2.98804 76.370212,-32.77291 106.559932,-77.58741 z m 1.594163,10.09637 C 79.028522,202.5249 49.398332,229.1621 25.497208,253.4173 67.450619,250.42926 107.71269,221.97286 137.90241,177.15836 Z"
           id="path6"
           sodipodi:nodetypes="cccccccc" /><circle
           r="47.988293"
           cy="150.92812"
           cx="114.79783"
           id="path2986-4"
           style="opacity:1;vector-effect:none;fill:#b87c00;fill-opacity:1;stroke:none;stroke-width:0.409035;stroke-linecap:round;stroke-linejoin:round;stroke-miterlimit:4;stroke-dasharray:none;stroke-dashoffset:0;stroke-opacity:1;paint-order:normal" /><circle
           r="47.988293"
           cy="143.83681"
           cx="108.88843"
           id="path2986"
           style="opacity:1;vector-effect:none;fill:url(#linearGradient3094);fill-opacity:1;stroke:none;stroke-width:0.409035;stroke-linecap:round;stroke-linejoin:round;stroke-miterlimit:4;stroke-dasharray:none;stroke-dashoffset:0;stroke-opacity:1;paint-order:normal" /><path
           id="path2986-6"
           transform="matrix(0.29546969,0,0,0.29546969,-12.224885,-8.938601)"
           d="M 409.90039,354.64648 A 162.41359,162.41359 0 0 0 247.48828,517.05859 162.41359,162.41359 0 0 0 296.06641,632.70508 162.41359,162.41359 0 0 1 251.48828,521.05859 162.41359,162.41359 0 0 1 413.90039,358.64648 162.41359,162.41359 0 0 1 527.73242,405.41016 162.41359,162.41359 0 0 0 409.90039,354.64648 Z"
           style="opacity:1;vector-effect:none;fill:#ffffff;fill-opacity:1;stroke:none;stroke-width:1.38435;stroke-linecap:round;stroke-linejoin:round;stroke-miterlimit:4;stroke-dasharray:none;stroke-dashoffset:0;stroke-opacity:1;paint-order:normal"
           inkscape:connector-curvature="0" /></g><path
         id="path815-4-0-1"
         d="M 382.62019,-584.32995 A 346.40455,346.40455 0 0 0 17.332639,-257.89944 346.40455,346.40455 0 0 0 343.76304,107.39009 346.40455,346.40455 0 0 0 709.05071,-219.04239 346.40455,346.40455 0 0 0 382.62019,-584.32995 Z m -4.92627,87.69572 A 258.57145,258.57145 0 0 1 621.35693,-223.96856 258.57145,258.57145 0 0 1 348.68932,19.694326 258.57145,258.57145 0 0 1 105.02838,-252.97316 258.57145,258.57145 0 0 1 377.69392,-496.63423 Z"
         style="vector-effect:none;fill:url(#linearGradient2729);fill-opacity:1;stroke:none;stroke-width:1.00157;stroke-linecap:round;stroke-linejoin:round;stroke-miterlimit:4;stroke-dasharray:none;stroke-dashoffset:0;stroke-opacity:1;paint-order:normal"
         inkscape:connector-curvature="0" /><path
         id="path815-0-9-2-6"
         d="M 600.76081,-340.25795 A 258.57145,258.57145 0 0 1 621.35693,-223.96856 258.57145,258.57145 0 0 1 348.68932,19.694326 258.57145,258.57145 0 0 1 127.39701,-132.5779 258.57145,258.57145 0 0 0 350.46183,23.800204 258.57145,258.57145 0 0 0 623.12944,-219.86269 258.57145,258.57145 0 0 0 600.76081,-340.25795 Z"
         style="vector-effect:none;fill:#ffffff;fill-opacity:1;stroke:none;stroke-width:1.00157;stroke-linecap:round;stroke-linejoin:round;stroke-miterlimit:4;stroke-dasharray:none;stroke-dashoffset:0;stroke-opacity:1;paint-order:normal"
         inkscape:connector-curvature="0" /><path
         id="path815-4-3-4-7"
         d="M 382.62019,-584.32995 A 346.40455,346.40455 0 0 0 17.332639,-257.89944 346.40455,346.40455 0 0 0 109.72179,-2.4953433 346.40456,346.40456 0 0 1 21.101998,-253.68139 346.40456,346.40456 0 0 1 386.38955,-580.1119 346.40456,346.40456 0 0 1 620.43083,-470.22649 346.40455,346.40455 0 0 0 382.62019,-584.32995 Z M 559.7294,-406.35274 A 258.57145,258.57145 0 0 1 621.35693,-223.96856 258.57145,258.57145 0 0 1 348.68932,19.694326 258.57145,258.57145 0 0 1 170.4233,-66.371077 258.57145,258.57145 0 0 0 352.45868,23.912376 258.57145,258.57145 0 0 0 625.12629,-219.75051 258.57145,258.57145 0 0 0 559.7294,-406.35274 Z"
         style="vector-effect:none;fill:#ffffff;fill-opacity:1;stroke:none;stroke-width:1.00157;stroke-linecap:round;stroke-linejoin:round;stroke-miterlimit:4;stroke-dasharray:none;stroke-dashoffset:0;stroke-opacity:1;paint-order:normal"
         inkscape:connector-curvature="0" /><g
         clip-path="url(#clipPath1786-7-8)"
         id="g1718-27-4"
         transform="matrix(3.7735783,0.21197957,-0.21197957,3.7735783,0.29055255,-802.4038)"><circle
           style="opacity:0.6;vector-effect:none;fill:#ffffff;fill-opacity:1;stroke:none;stroke-width:0.265;stroke-linecap:round;stroke-linejoin:round;stroke-miterlimit:4;stroke-dasharray:none;stroke-dashoffset:0;stroke-opacity:1;paint-order:normal;filter:url(#filter1228-57-4)"
           id="path990-1-8"
           cx="62.246304"
           cy="71.874062"
           r="30.986561" /><circle
           style="opacity:0.6;vector-effect:none;fill:#ffffff;fill-opacity:1;stroke:none;stroke-width:0.265;stroke-linecap:round;stroke-linejoin:round;stroke-miterlimit:4;stroke-dasharray:none;stroke-dashoffset:0;stroke-opacity:1;paint-order:normal;filter:url(#filter1228-1-2-0)"
           id="path990-3-2-4"
           cx="143.88675"
           cy="194.51463"
           r="30.986561" /><circle
           style="opacity:0.6;vector-effect:none;fill:#ffffff;fill-opacity:1;stroke:none;stroke-width:0.265;stroke-linecap:round;stroke-linejoin:round;stroke-miterlimit:4;stroke-dasharray:none;stroke-dashoffset:0;stroke-opacity:1;paint-order:normal;filter:url(#filter1228-57-4-4)"
           id="path990-1-8-7"
           cx="87.390114"
           cy="109.42522"
           r="30.986561" /></g></g></g></svg>
