<?xml version="1.0" encoding="UTF-8" standalone="no"?>
<!-- Generator: Adobe Illustrator 25.3.0, SVG Export Plug-In . SVG Version: 6.00 Build 0)  -->

<svg
   version="1.1"
   id="Calque_1"
   x="0px"
   y="0px"
   viewBox="0 0 18.709944 18.700001"
   xml:space="preserve"
   sodipodi:docname="icon-settings.svg"
   inkscape:version="1.4 (86a8ad7, 2024-10-11)"
   width="18.709944"
   height="18.700001"
   xmlns:inkscape="http://www.inkscape.org/namespaces/inkscape"
   xmlns:sodipodi="http://sodipodi.sourceforge.net/DTD/sodipodi-0.dtd"
   xmlns="http://www.w3.org/2000/svg"
   xmlns:svg="http://www.w3.org/2000/svg"
   xmlns:rdf="http://www.w3.org/1999/02/22-rdf-syntax-ns#"
   xmlns:cc="http://creativecommons.org/ns#"
   xmlns:dc="http://purl.org/dc/elements/1.1/"><metadata
   id="metadata13"><rdf:RDF><cc:Work
       rdf:about=""><dc:format>image/svg+xml</dc:format><dc:type
         rdf:resource="http://purl.org/dc/dcmitype/StillImage" /></cc:Work></rdf:RDF></metadata><defs
   id="defs11" /><sodipodi:namedview
   pagecolor="#000000"
   bordercolor="#666666"
   borderopacity="1"
   objecttolerance="10"
   gridtolerance="10"
   guidetolerance="10"
   inkscape:pageopacity="0"
   inkscape:pageshadow="2"
   inkscape:window-width="1718"
   inkscape:window-height="1363"
   id="namedview9"
   showgrid="false"
   inkscape:zoom="13.111111"
   inkscape:cx="-0.038135594"
   inkscape:cy="9.2669492"
   inkscape:window-x="1712"
   inkscape:window-y="0"
   inkscape:window-maximized="0"
   inkscape:current-layer="Calque_1"
   inkscape:showpageshadow="2"
   inkscape:pagecheckerboard="true"
   inkscape:deskcolor="#d1d1d1" />
<style
   type="text/css"
   id="style2">
	.st0{fill:#FFFFFF;}
</style>
<g
   id="Responsive"
   style="fill:#f9f9f9;stroke:#1a1a1a;stroke-width:0.7;stroke-dasharray:none"
   transform="translate(0.35497196,0.34999999)">
	<g
   id="Galaxy-S10_x2B_-Copy-12"
   transform="translate(-250,-42)"
   style="fill:#f9f9f9;stroke:#1a1a1a;stroke-width:0.7;stroke-dasharray:none">
		<g
   id="settings"
   transform="translate(256,48)"
   style="fill:#f9f9f9;stroke:#1a1a1a;stroke-width:0.7;stroke-dasharray:none">
			<path
   id="XMLID_521_"
   class="st0"
   d="m -5.9,6.1 1.7,2.8 c 0.2,0.3 0.6,0.5 1,0.4 l 2.5,-0.8 c 0.2,0.1 0.4,0.2 0.7,0.4 l 0.5,2.5 C 0.6,11.7 0.9,12 1.3,12 h 3.4 c 0.4,0 0.7,-0.3 0.8,-0.7 L 6,8.9 C 6.2,8.8 6.5,8.7 6.7,8.5 l 2.5,0.8 c 0.4,0.1 0.8,0 1,-0.4 L 11.9,6.1 C 12.1,5.8 12,5.3 11.7,5.1 l -2,-1.7 c 0,-0.1 0,-0.3 0,-0.4 0,-0.1 0,-0.3 0,-0.4 l 2,-1.7 c 0.3,-0.3 0.4,-0.7 0.2,-1 L 10.2,-2.9 C 10,-3.2 9.6,-3.4 9.2,-3.3 L 6.7,-2.5 C 6.5,-2.6 6.3,-2.7 6,-2.9 L 5.5,-5.3 C 5.4,-5.7 5.1,-6 4.7,-6 H 1.3 C 0.9,-6 0.6,-5.7 0.5,-5.3 L 0,-2.9 c -0.2,0.1 -0.5,0.2 -0.7,0.4 l -2.5,-0.8 c -0.4,-0.1 -0.8,0 -1,0.4 l -1.7,2.8 c -0.2,0.3 -0.1,0.8 0.2,1 l 2,1.7 c 0,0.1 0,0.3 0,0.4 0,0.1 0,0.3 0,0.4 l -2,1.7 C -6,5.3 -6.1,5.7 -5.9,6.1 Z M 3,-0.3 C 4.9,-0.3 6.4,1.2 6.4,3 6.4,4.8 4.9,6.3 3,6.3 1.1,6.3 -0.4,4.8 -0.4,3 -0.4,1.2 1.1,-0.3 3,-0.3 Z"
   style="fill:#f9f9f9;stroke:#1a1a1a;stroke-width:0.7;stroke-dasharray:none" />
		</g>
	</g>
</g>
</svg>
