<?xml version="1.0" encoding="UTF-8" standalone="no"?>
<!-- Created with Inkscape (http://www.inkscape.org/) -->

<svg
   width="162.69528mm"
   height="185.70645mm"
   viewBox="0 0 162.69528 185.70645"
   version="1.1"
   id="svg1"
   xml:space="preserve"
   sodipodi:docname="icon-random-ability.svg"
   inkscape:version="1.3.2 (091e20e, 2023-11-25, custom)"
   xmlns:inkscape="http://www.inkscape.org/namespaces/inkscape"
   xmlns:sodipodi="http://sodipodi.sourceforge.net/DTD/sodipodi-0.dtd"
   xmlns:xlink="http://www.w3.org/1999/xlink"
   xmlns="http://www.w3.org/2000/svg"
   xmlns:svg="http://www.w3.org/2000/svg"><sodipodi:namedview
     id="namedview1"
     pagecolor="#ffffff"
     bordercolor="#666666"
     borderopacity="1.0"
     inkscape:showpageshadow="2"
     inkscape:pageopacity="0.0"
     inkscape:pagecheckerboard="true"
     inkscape:deskcolor="#d1d1d1"
     inkscape:document-units="mm"
     inkscape:zoom="0.84401275"
     inkscape:cx="296.79646"
     inkscape:cy="248.219"
     inkscape:window-width="1718"
     inkscape:window-height="1363"
     inkscape:window-x="1712"
     inkscape:window-y="0"
     inkscape:window-maximized="0"
     inkscape:current-layer="layer1"
     showguides="true"><sodipodi:guide
       position="43.838282,1.2040346"
       orientation="1,0"
       id="guide17"
       inkscape:locked="false" /></sodipodi:namedview><defs
     id="defs1"><linearGradient
       id="linearGradient14"
       inkscape:collect="always"><stop
         style="stop-color:#87d7ef;stop-opacity:1;"
         offset="0.25256673"
         id="stop14" /><stop
         style="stop-color:#199fcc;stop-opacity:1;"
         offset="1"
         id="stop15" /></linearGradient><radialGradient
       inkscape:collect="always"
       xlink:href="#linearGradient14"
       id="radialGradient15"
       cx="327.77789"
       cy="125.1618"
       fx="327.77789"
       fy="125.1618"
       r="47.177906"
       gradientTransform="matrix(0.99992436,-0.01229947,0.01879403,1.5279194,-3.893048,-62.156532)"
       gradientUnits="userSpaceOnUse" /><filter
       inkscape:collect="always"
       style="color-interpolation-filters:sRGB"
       id="filter17"
       x="-0.36278154"
       y="-0.22492741"
       width="1.7327543"
       height="1.4498548"><feGaussianBlur
         inkscape:collect="always"
         stdDeviation="8.8792107"
         id="feGaussianBlur17" /></filter></defs><g
     inkscape:label="Layer 1"
     inkscape:groupmode="layer"
     id="layer1"
     transform="translate(-244.53137,-26.804587)"><path
       id="path1-9-7"
       style="mix-blend-mode:normal;fill:none;fill-opacity:1;stroke:#49c2e7;stroke-width:15;stroke-linecap:butt;stroke-linejoin:miter;stroke-dasharray:none;stroke-opacity:1;paint-order:stroke fill markers;filter:url(#filter17)"
       d="m 312.36494,55.614693 c -1.71116,4.629434 -3.95095,7.056553 -4.86895,14.990816 -1.08507,-0.614459 -2.72941,-1.899773 -4.54856,-3.395141 -1.593,-1.014779 -3.83897,-5.512995 -5.82962,-8.648568 -1.67693,0.80021 -1.80312,3.15134 -2.05052,5.381067 0.0612,2.801157 0.29422,5.637069 1.08934,8.585006 1.04485,2.725147 2.50881,5.366263 4.29224,7.943701 0.58581,1.507278 1.74233,2.158453 2.90577,2.799312 -0.25028,1.251459 0.36006,2.257152 1.13274,3.216341 l -5.75313,2.355412 c -1.56429,1.123719 -2.8613,2.359102 -2.67271,4.21318 l 0.36225,0.996321 3.48816,0.453203 c -1.65922,3.555426 -3.40207,7.093097 -3.05046,11.079427 -2.22027,2.44369 -4.62863,4.66196 -6.15053,7.9437 l 0.12816,2.05 c 3.16049,3.81521 6.32112,6.49105 9.48159,9.4816 1.31482,0.71377 2.54846,0.94166 3.71554,0.76894 3.482,4.13728 7.11325,6.25902 10.89081,6.40633 -1.31628,2.82756 0.22251,4.94103 1.7942,7.0466 l -12.17238,-1.02475 c -4.7839,3.80581 -9.85283,11.99731 -8.71265,12.42819 -4.69983,11.37923 -11.18323,22.12159 -17.24184,33.01555 h 12.33568 c 1.56339,-1.90627 3.3023,-4.11174 4.32945,-5.85235 4.03142,-6.83164 7.31889,-14.13654 11.01897,-21.20491 l 0.70487,0.19223 c 0.57199,-1.32602 0.85309,-2.78169 2.30632,-3.71605 0.56858,2.19432 1.13504,4.37707 1.60145,5.9583 0.32031,1.79147 0.34163,4.81476 0.60771,6.6461 0.48005,3.30407 1.73611,5.58889 1.69861,6.8709 l -0.3204,10.9554 c -0.01,0.05 -0.0186,0.10039 -0.0284,0.15038 h 24.75715 c 0.0653,-3.66485 -0.15999,-7.36628 0.32039,-10.97762 0.41199,-3.09719 0.96792,-5.56552 1.4733,-8.00778 0.46,-2.22301 0.55541,-3.06855 0.83302,-4.48448 0.60449,-2.69656 1.18279,-5.43076 2.49855,-7.1112 0.22501,1.52377 0.25219,3.28518 0.96119,4.22817 l 0.89658,-0.25632 c 3.84118,7.02553 6.9395,14.15433 11.46752,21.52582 1.12668,1.8342 2.35064,3.48212 3.59875,5.08341 h 12.83332 c -6.00313,-9.74622 -9.40045,-15.18694 -17.58549,-32.37477 -0.9331,-5.72736 -4.76787,-9.52026 -8.77672,-13.19712 l -12.30003,0.76894 c 1.49181,-2.20293 3.5981,-4.38223 1.40922,-6.72672 3.98778,-0.41976 4.86197,-0.75458 8.45685,-3.13934 1.15733,-1.09118 2.08243,-2.0666 2.94659,-3.01119 1.32913,-0.17341 2.55374,-0.29398 3.58789,-0.31988 3.30036,-3.19072 6.89486,-5.89094 9.80147,-9.7379 l -0.32039,-2.88303 -3.97185,-5.5733 c 0.24143,-2.54463 -1.25125,-3.54799 -2.24224,-4.99711 -0.73747,-4.103186 -2.34043,-6.821563 -3.77962,-9.80199 l 6.91896,-5.316989 -2.17816,-0.576709 1.28106,-2.434476 c -2.5412,1.270968 -5.08211,1.236762 -7.62331,0.897103 -2.28236,0.05124 -3.7094,-0.610747 -5.12527,-1.281576 -1.94688,-1.375019 -3.48538,-2.613734 -4.99711,-3.843693 -0.9876,-0.32032 -1.97557,-0.640345 -2.81895,-0.960665 l -2.49856,0.832507 c 0.37371,-1.067728 -0.26046,-2.135176 -0.89658,-3.202905 -4.23957,-3.754186 -5.66348,-2.883286 -8.00778,-3.523816 l -4.03645,-0.832507 -2.3704,-2.050004 c -1.18314,-1.393729 -1.81639,-2.879104 -2.11408,-4.420402 -1.83429,-5.455641 -1.96656,-7.022114 -2.88251,-10.378695 z" /><path
       id="path1-9"
       style="fill:url(#radialGradient15);stroke:#bee9f6;stroke-width:4.865;stroke-linecap:butt;stroke-linejoin:miter;stroke-dasharray:none;stroke-opacity:1;paint-order:stroke fill markers"
       d="m 312.36494,55.614693 c -1.71116,4.629434 -3.95095,7.056553 -4.86895,14.990816 -1.08507,-0.614459 -2.72941,-1.899773 -4.54856,-3.395141 -1.593,-1.014779 -3.83897,-5.512995 -5.82962,-8.648568 -1.67693,0.80021 -1.80312,3.15134 -2.05052,5.381067 0.0612,2.801157 0.29422,5.637069 1.08934,8.585006 1.04485,2.725147 2.50881,5.366263 4.29224,7.943701 0.58581,1.507278 1.74233,2.158453 2.90577,2.799312 -0.25028,1.251459 0.36006,2.257152 1.13274,3.216341 l -5.75313,2.355412 c -1.56429,1.123719 -2.8613,2.359102 -2.67271,4.21318 l 0.36225,0.996321 3.48816,0.453203 c -1.65922,3.555426 -3.40207,7.093097 -3.05046,11.079427 -2.22027,2.44369 -4.62863,4.66196 -6.15053,7.9437 l 0.12816,2.05 c 3.16049,3.81521 6.32112,6.49105 9.48159,9.4816 1.31482,0.71377 2.54846,0.94166 3.71554,0.76894 3.482,4.13728 7.11325,6.25902 10.89081,6.40633 -1.31628,2.82756 0.22251,4.94103 1.7942,7.0466 l -12.17238,-1.02475 c -4.7839,3.80581 -9.85283,11.99731 -8.71265,12.42819 -4.69983,11.37923 -11.18323,22.12159 -17.24184,33.01555 h 12.33568 c 1.56339,-1.90627 3.3023,-4.11174 4.32945,-5.85235 4.03142,-6.83164 7.31889,-14.13654 11.01897,-21.20491 l 0.70487,0.19223 c 0.57199,-1.32602 0.85309,-2.78169 2.30632,-3.71605 0.56858,2.19432 1.13504,4.37707 1.60145,5.9583 0.32031,1.79147 0.34163,4.81476 0.60771,6.6461 0.48005,3.30407 1.73611,5.58889 1.69861,6.8709 l -0.3204,10.9554 c -0.01,0.05 -0.0186,0.10039 -0.0284,0.15038 h 24.75715 c 0.0653,-3.66485 -0.15999,-7.36628 0.32039,-10.97762 0.41199,-3.09719 0.96792,-5.56552 1.4733,-8.00778 0.46,-2.22301 0.55541,-3.06855 0.83302,-4.48448 0.60449,-2.69656 1.18279,-5.43076 2.49855,-7.1112 0.22501,1.52377 0.25219,3.28518 0.96119,4.22817 l 0.89658,-0.25632 c 3.84118,7.02553 6.9395,14.15433 11.46752,21.52582 1.12668,1.8342 2.35064,3.48212 3.59875,5.08341 h 12.83332 c -6.00313,-9.74622 -9.40045,-15.18694 -17.58549,-32.37477 -0.9331,-5.72736 -4.76787,-9.52026 -8.77672,-13.19712 l -12.30003,0.76894 c 1.49181,-2.20293 3.5981,-4.38223 1.40922,-6.72672 3.98778,-0.41976 4.86197,-0.75458 8.45685,-3.13934 1.15733,-1.09118 2.08243,-2.0666 2.94659,-3.01119 1.32913,-0.17341 2.55374,-0.29398 3.58789,-0.31988 3.30036,-3.19072 6.89486,-5.89094 9.80147,-9.7379 l -0.32039,-2.88303 -3.97185,-5.5733 c 0.24143,-2.54463 -1.25125,-3.54799 -2.24224,-4.99711 -0.73747,-4.103186 -2.34043,-6.821563 -3.77962,-9.80199 l 6.91896,-5.316989 -2.17816,-0.576709 1.28106,-2.434476 c -2.5412,1.270968 -5.08211,1.236762 -7.62331,0.897103 -2.28236,0.05124 -3.7094,-0.610747 -5.12527,-1.281576 -1.94688,-1.375019 -3.48538,-2.613734 -4.99711,-3.843693 -0.9876,-0.32032 -1.97557,-0.640345 -2.81895,-0.960665 l -2.49856,0.832507 c 0.37371,-1.067728 -0.26046,-2.135176 -0.89658,-3.202905 -4.23957,-3.754186 -5.66348,-2.883286 -8.00778,-3.523816 l -4.03645,-0.832507 -2.3704,-2.050004 c -1.18314,-1.393729 -1.81639,-2.879104 -2.11408,-4.420402 -1.83429,-5.455641 -1.96656,-7.022114 -2.88251,-10.378695 z" /><path
       d="m 318.06961,128.01948 0.0838,-0.67027 q 0,-3.60268 2.0108,-5.69726 2.09458,-2.09459 4.5243,-2.76485 2.42972,-0.67027 4.44052,-2.26215 2.09458,-1.59188 2.09458,-4.27295 0,-2.76485 -1.59188,-4.27295 -1.5081,-1.5081 -4.60809,-1.5081 -3.09998,0 -4.60808,1.0054 -1.42431,0.92162 -1.75945,1.92702 l -0.25135,1.0054 q -0.75405,2.17836 -1.75945,3.35133 -1.0054,1.08918 -2.59728,1.08918 -1.59188,0 -4.18916,-1.0054 -5.027,-1.92701 -5.027,-4.77565 0,-1.25675 0.5027,-2.51349 0.5027,-1.34054 0.83783,-2.17837 0.33513,-0.92162 1.75945,-3.09998 1.5081,-2.178369 3.35133,-3.770251 1.92702,-1.675667 5.36213,-3.016199 3.43512,-1.424316 7.62428,-1.424316 8.88103,0 14.49452,5.697264 5.61348,5.697262 5.61348,13.237762 0,3.60268 -1.34054,6.70266 -1.25675,3.0162 -3.09998,4.77565 -3.68646,3.5189 -6.87023,4.69187 l -1.34053,0.41891 q 0,1.42432 -0.16757,2.17837 -0.0838,0.75405 -0.75405,1.67567 -0.58648,0.83783 -2.09458,1.25675 -1.42432,0.33513 -3.85403,0.33513 -2.42972,0 -3.93782,-0.41892 -1.42431,-0.41891 -2.0108,-1.42431 -0.58648,-1.0054 -0.75405,-1.75945 -0.0838,-0.83784 -0.0838,-2.5135 z m -0.33513,14.99721 q 0.67026,-1.34053 2.34593,-1.92702 1.75945,-0.58648 5.44591,-0.58648 3.68647,0 5.27835,1.67567 1.67567,1.59188 1.67567,6.28374 0,3.35134 -0.83784,5.027 -0.83783,1.59188 -2.59728,2.17837 -1.67566,0.5027 -5.27835,0.5027 -3.60268,0 -5.52969,-1.75945 -1.42432,-1.42432 -1.42432,-4.85943 v -1.34054 q 0,-1.92701 0.0838,-2.93241 0.16757,-1.0054 0.83784,-2.26215 z"
       id="text1"
       style="font-size:83.7833px;line-height:1.25;font-family:'Fredoka One';-inkscape-font-specification:'Fredoka One, Normal';text-align:end;letter-spacing:0px;word-spacing:0px;text-anchor:end;stroke-width:0.264583"
       aria-label="?" /></g></svg>
