<?xml version="1.0" encoding="UTF-8" standalone="no"?>
<!-- Created with Inkscape (http://www.inkscape.org/) -->

<svg
   width="300"
   height="300"
   viewBox="0 0 79.374999 79.375003"
   version="1.1"
   id="svg8"
   inkscape:version="1.3.2 (091e20e, 2023-11-25, custom)"
   sodipodi:docname="mobile-hint-pinch.svg"
   xmlns:inkscape="http://www.inkscape.org/namespaces/inkscape"
   xmlns:sodipodi="http://sodipodi.sourceforge.net/DTD/sodipodi-0.dtd"
   xmlns="http://www.w3.org/2000/svg"
   xmlns:svg="http://www.w3.org/2000/svg"
   xmlns:rdf="http://www.w3.org/1999/02/22-rdf-syntax-ns#"
   xmlns:cc="http://creativecommons.org/ns#"
   xmlns:dc="http://purl.org/dc/elements/1.1/">
  <defs
     id="defs2" />
  <sodipodi:namedview
     id="base"
     pagecolor="#ffffff"
     bordercolor="#666666"
     borderopacity="1.0"
     inkscape:pageopacity="0.0"
     inkscape:pageshadow="2"
     inkscape:zoom="0.7"
     inkscape:cx="111.42857"
     inkscape:cy="-33.571429"
     inkscape:document-units="px"
     inkscape:current-layer="g4624"
     showgrid="false"
     units="px"
     inkscape:window-width="1718"
     inkscape:window-height="1363"
     inkscape:window-x="-8"
     inkscape:window-y="0"
     inkscape:window-maximized="0"
     fit-margin-top="0"
     fit-margin-left="0"
     fit-margin-right="0"
     fit-margin-bottom="0"
     inkscape:showpageshadow="2"
     inkscape:pagecheckerboard="0"
     inkscape:deskcolor="#d1d1d1" />
  <metadata
     id="metadata5">
    <rdf:RDF>
      <cc:Work
         rdf:about="">
        <dc:format>image/svg+xml</dc:format>
        <dc:type
           rdf:resource="http://purl.org/dc/dcmitype/StillImage" />
      </cc:Work>
    </rdf:RDF>
  </metadata>
  <g
     inkscape:label="Layer 1"
     inkscape:groupmode="layer"
     id="layer1"
     transform="translate(-85.763974,-60.500844)">
    <g
       inkscape:export-ydpi="163.84"
       inkscape:export-xdpi="163.84"
       inkscape:export-filename="D:\ApplisData\fallguys.io\web\ui\mobile-hint-2.png"
       id="g4624"
       transform="translate(82.853554,-146.99824)">
      <rect
         ry="13.21446"
         y="207.49908"
         x="2.9104197"
         height="79.375"
         width="79.375"
         id="rect4590"
         style="opacity:0.355;vector-effect:none;fill:#000000;fill-opacity:1;stroke:none;stroke-width:2.18933;stroke-linecap:round;stroke-linejoin:round;stroke-miterlimit:4;stroke-dasharray:none;stroke-dashoffset:0;stroke-opacity:1;paint-order:normal" />
      <circle
         r="4.2763128"
         cy="250.85312"
         cx="-33.36187"
         id="circle4598-4"
         style="opacity:0.5;vector-effect:none;fill:#ffffff;fill-opacity:1;stroke:#ffffff;stroke-width:2.64583;stroke-linecap:round;stroke-linejoin:round;stroke-miterlimit:4;stroke-dasharray:none;stroke-dashoffset:0;stroke-opacity:1;paint-order:normal"
         transform="scale(-1,1)" />
      <path
         style="fill:#ffffff;stroke-width:0.181158"
         id="path4592"
         d="m 47.223808,284.42167 2.885039,-4.70975 3.230519,-1.68795 c 1.401524,-0.72823 2.581831,-1.82584 3.412895,-3.1739 l 4.993553,-8.10028 c 0.571305,-0.96581 0.628955,-2.90787 -0.195993,-4.25932 -0.166877,-0.27337 -0.364931,-0.51641 -0.587889,-0.72138 -0.352114,-0.32507 -0.952115,-1.03694 -1.532173,-1.72539 -0.725698,-0.86142 -1.476369,-1.75215 -2.07698,-2.30903 -0.309147,-0.28788 -0.895436,-0.96995 -1.462601,-1.62997 -0.751331,-0.87405 -1.528498,-1.77808 -2.115249,-2.32267 -0.57469,-0.53215 -1.226566,-0.92432 -1.87629,-1.1469 1.335281,-2.85937 4.532016,-9.71247 4.998055,-10.74414 l 0.0053,0.002 c 0.444049,-0.93411 0.398831,-1.92334 -0.127583,-2.78571 -0.618555,-1.01333 -1.8038,-1.6692 -3.01981,-1.67035 -1.074328,-10e-4 -2.011621,0.52152 -2.570166,1.43217 l -11.40427,18.47716 c -0.241777,-0.22577 -0.559567,-0.57227 -0.848137,-1.04502 -0.438995,-0.71916 -0.684925,-1.52673 -0.730903,-2.40212 l -0.01357,-0.24887 c -0.01709,-0.31415 -0.03282,-0.60364 -0.04623,-0.87737 -0.03827,-0.70639 -0.228026,-1.34317 -0.563776,-1.89319 -0.674422,-1.10486 -1.880259,-1.72765 -3.147029,-1.62544 -1.302999,0.105 -2.399961,0.95067 -2.934377,2.26189 -1.003753,2.46301 -1.835128,8.93812 -0.09079,16.82405 l -2.819815,4.59382 c -0.41724,0.67684 -0.418197,1.52055 -0.0025,2.2016 0,0 0,0 1.06e-4,1.7e-4 0.170966,0.28007 0.409249,0.51953 0.688974,0.69198 l 15.056694,9.2824 c 0.477153,0.294 1.041412,0.38464 1.588788,0.25466 0.547213,-0.12987 1.010778,-0.46401 1.306266,-0.94373 z"
         inkscape:connector-curvature="0" />
      <text
         id="text4596"
         y="219.27534"
         x="16.062689"
         style="font-style:normal;font-weight:normal;font-size:8.97284px;line-height:1.25;font-family:sans-serif;letter-spacing:0px;word-spacing:0px;fill:#ffffff;fill-opacity:1;stroke:none;stroke-width:0.224321"
         xml:space="preserve"><tspan
           style="font-style:normal;font-variant:normal;font-weight:normal;font-stretch:normal;font-size:7.76111px;font-family:'Fredoka One';-inkscape-font-specification:'Fredoka One, Normal';font-variant-ligatures:normal;font-variant-caps:normal;font-variant-numeric:normal;font-feature-settings:normal;text-align:start;writing-mode:lr-tb;text-anchor:start;fill:#ffffff;stroke-width:0.224321"
           y="219.27534"
           x="16.062689"
           id="tspan4594"
           sodipodi:role="line">Pinch to Zoom</tspan></text>
      <circle
         r="4.2763128"
         cy="237.30426"
         cx="-54.178074"
         id="circle4598"
         style="opacity:0.5;vector-effect:none;fill:#ffffff;fill-opacity:1;stroke:#ffffff;stroke-width:2.64583;stroke-linecap:round;stroke-linejoin:round;stroke-miterlimit:4;stroke-dasharray:none;stroke-dashoffset:0;stroke-opacity:1;paint-order:normal"
         transform="scale(-1,1)" />
      <path
         style="fill:#ffffff;stroke:none;stroke-width:2.16114;stroke-linecap:round;stroke-linejoin:miter;stroke-miterlimit:4;stroke-dasharray:none;stroke-opacity:1"
         d="m 23.653259,237.39108 c -0.170534,-0.003 -0.342225,0.0391 -0.465089,0.12247 -0.264653,0.17967 -0.238704,0.60647 -0.252697,0.92604 l -0.168466,3.84059 c -0.01423,0.32487 0.03178,0.60319 0.19172,0.84285 0.168438,0.2524 0.434564,0.42439 0.742074,0.5271 l 4.039546,1.34875 c 0.303288,0.1013 0.692767,0.32178 0.95033,0.13229 0.25439,-0.18716 0.336843,-0.67695 0.154513,-0.93482 l -4.645195,-6.56963 c -0.110227,-0.1559 -0.327482,-0.23234 -0.546736,-0.23564 z"
         id="path1" />
      <path
         style="fill:#ffffff;stroke:none;stroke-width:2.16114;stroke-linecap:round;stroke-linejoin:miter;stroke-miterlimit:4;stroke-dasharray:none;stroke-opacity:1"
         d="m 43.830248,223.32365 c -0.07745,0.004 -0.150066,0.0265 -0.214457,0.0739 -0.254391,0.18716 -0.336842,0.67696 -0.154513,0.93483 l 4.644678,6.56911 c 0.195965,0.27716 0.731508,0.30383 1.012341,0.11317 0.264653,-0.17967 0.238704,-0.60596 0.252698,-0.92552 l 0.167948,-3.8406 c 0.01423,-0.32486 -0.03178,-0.60318 -0.19172,-0.84284 -0.168437,-0.2524 -0.434562,-0.42439 -0.742072,-0.5271 l -4.039548,-1.34875 c -0.227466,-0.076 -0.503,-0.21939 -0.735355,-0.20619 z"
         id="path4614" />
      <path
         inkscape:connector-curvature="0"
         id="path4618"
         d="M 47.652743,226.38663 24.436819,242.26918"
         style="fill:none;stroke:#ffffff;stroke-width:2.16114;stroke-linecap:round;stroke-linejoin:miter;stroke-miterlimit:4;stroke-dasharray:none;stroke-opacity:1"
         sodipodi:nodetypes="cc" />
    </g>
  </g>
</svg>
